<svg width="101" height="91" viewBox="0 0 101 91" fill="none" xmlns="http://www.w3.org/2000/svg">
<path d="M74.8358 59.1963C72.7751 60.7998 70.4966 62.0498 68.0537 62.907C67.9287 62.9498 67.8001 62.9963 67.6716 63.0356L55.4787 41.9141L50.9501 34.0713L44.1787 22.3427C44.2787 22.2534 44.3787 22.1641 44.4823 22.0748C46.4894 20.3498 48.743 18.9748 51.1859 17.9856L51.468 17.8713L75.1466 58.8891L74.8358 59.1963Z" fill="#FFF"/>
<path d="M24.4321 49.5679C25.3107 52.9286 26.6536 56.1036 28.3857 59.0214C25.9071 63.5571 24.6268 68.9178 24.5696 74.975H16C16.0929 63.7536 19.65 55.5107 24.4321 49.5679Z" fill="#FFF"/>
<path d="M58.0679 41.5607H58.0572C57.9393 41.5714 56.9893 41.6571 55.4786 41.9142C52.2608 42.4642 46.4893 43.8071 40.8322 46.9321C39.7322 47.5392 38.6893 48.1857 37.7001 48.8678C37.0822 49.2892 36.4893 49.7285 35.9179 50.1821V50.1857C35.3251 50.6535 34.7536 51.1357 34.2072 51.6392C33.0536 52.6892 32.0072 53.8107 31.0608 55C30.5643 55.6214 30.0929 56.2642 29.6572 56.925C28.0643 54.0285 26.8751 50.8857 26.1608 47.5642C26.7572 46.9214 27.3679 46.3071 27.9893 45.725C29.2608 44.5214 30.5751 43.4464 31.9001 42.4785C32.5893 41.975 33.2786 41.5 33.9679 41.0571C34.6858 40.5928 35.4001 40.1607 36.1072 39.7571C36.3965 39.5892 36.6858 39.4321 36.9715 39.275C42.0608 36.5107 47.1286 34.9464 50.9501 34.0714C54.6929 33.2178 57.2465 33.025 57.4536 33.0107L57.7536 37.2857L57.8 37.8964L58.0679 41.5607Z" fill="#FFF"/>
<path d="M84.4349 74.975H74.566L73.1074 72.4464L72.0217 70.5678L69.8502 66.8107L68.7645 64.9286C71.4967 63.9678 74.0217 62.5643 76.2538 60.8071L79.3074 66.0928L84.4349 74.975Z" fill="#FFF"/>
<path d="M79.3073 66.0929L76.2608 60.8L76.2537 60.8071C74.0215 62.5643 71.4965 63.9679 68.7644 64.9286C66.0537 65.8821 63.1394 66.4036 60.1037 66.4036C49.2001 66.4036 39.8323 59.6929 35.918 50.1857V50.1821C34.7501 47.3536 34.068 44.2786 33.968 41.0571C33.9608 40.7893 33.9573 40.525 33.9573 40.2571C33.9573 32.3464 37.5073 25.2464 43.0858 20.45C45.243 18.5929 47.7037 17.0821 50.3823 16H35.293C29.168 22.2607 25.3858 30.8286 25.3858 40.2571C25.3858 42.7643 25.6537 45.2071 26.1608 47.5643C26.8751 50.8857 28.0644 54.0286 29.6573 56.925C35.5644 67.675 46.9965 74.975 60.1037 74.975C64.7001 74.975 69.0894 74.0786 73.1073 72.4464C75.7751 71.3679 78.2787 69.9607 80.568 68.2857L79.3073 66.0929Z" fill="#FFF"/>
</svg>
