<svg width="551" height="161" viewBox="0 0 551 161" fill="none" xmlns="http://www.w3.org/2000/svg">
<path d="M130.031 66.4969C130.857 68.1121 130.703 68.8255 130.188 70.5685C128.125 74.7722 128.125 74.7722 125.986 75.6119C126.312 73.0971 126.867 71.0158 126.826 68.467C121.072 66.5488 113.617 68.2942 107.913 69.7279C107.608 69.8046 107.302 69.8812 106.988 69.9602C95.1439 73.1009 83.578 80.0715 73.8697 87.3801C73.5315 87.6316 73.5315 87.6316 73.1865 87.8882C57.6248 99.1775 57.6248 99.1775 48.232 115.119C48.2614 117.159 48.2614 117.159 49.3717 118.759C52.439 120.554 57.096 119.733 60.4992 119.427C60.9525 119.389 61.4057 119.351 61.8727 119.312C65.1911 119.013 68.4461 118.538 71.7124 117.887C73.0291 117.641 73.0291 117.641 74.2899 117.641C74.3311 117.281 74.3723 116.92 74.4147 116.549C74.7869 113.703 75.1275 111.574 76.8117 109.235C76.9693 109.01 77.127 108.785 77.2894 108.554C80.6539 104.179 85.8836 101.258 90.6813 98.7279C91.0804 98.515 91.0804 98.515 91.4876 98.2978C95.5775 96.13 99.7296 94.2855 104.131 92.8438C104.533 92.7103 104.533 92.7104 104.944 92.5742C108.372 91.4761 111.667 91.0023 115.268 90.9525C115.615 90.9447 115.961 90.937 116.319 90.9289C119.386 90.9607 121.5 91.9545 123.884 93.842C124.725 94.9453 124.725 94.9453 125.04 96.1273C124.197 99.711 120.435 102.091 117.472 103.944C116.432 104.553 115.382 105.139 114.323 105.715C113.929 105.93 113.536 106.144 113.131 106.365C108.047 109.072 102.733 111.261 97.4059 113.438C97.0312 113.591 96.6565 113.744 96.2704 113.902C94.5525 114.601 92.8294 115.286 91.1015 115.96C95.8957 115.229 100.412 114.17 104.997 112.597C105.295 112.497 105.592 112.396 105.898 112.293C111.516 110.387 116.91 108.138 122.203 105.453C122.582 105.262 122.961 105.071 123.351 104.874C130.829 101.062 137.8 96.4334 144.697 91.6667C145.053 91.4207 145.409 91.1747 145.776 90.9212C146.423 90.4721 147.067 90.0201 147.71 89.5645C154.196 85.0299 154.196 85.0299 157.928 85.2786C159.981 86.8392 161.107 89.0143 161.461 91.5452C161.591 95.9412 160.217 99.1503 157.481 102.563C149.583 110.857 138.149 114.493 126.915 114.806C125.931 114.818 124.947 114.827 123.963 114.83C123.494 114.833 123.025 114.835 122.543 114.837C120.271 114.817 118.462 114.665 116.319 113.858C114.921 113.711 114.921 113.711 113.508 113.727C112.804 113.716 112.804 113.716 112.085 113.706C108.503 113.839 104.155 116.579 100.611 117.562C95.7067 118.845 91.0253 119.615 85.9612 119.887C84.9602 119.943 83.9593 120 82.9584 120.058C82.4407 120.087 81.923 120.117 81.3896 120.148C77.246 120.43 73.2644 121.104 69.1939 121.896C62.4626 123.198 54.3988 124.738 47.8117 122.264C46.1394 121.074 44.8449 119.965 44.0291 118.061C43.6085 112.594 47.8354 107.746 51.174 103.771C52.1124 102.688 53.0635 101.622 54.0356 100.568C54.6374 99.915 55.2301 99.253 55.812 98.5818C60.2998 93.4229 65.4424 88.9235 70.9276 84.8583C71.1994 84.6558 71.4712 84.4533 71.7512 84.2447C76.323 80.8623 81.0883 77.9489 86.0581 75.1917C86.59 74.8907 87.1219 74.5897 87.6539 74.2887C96.1623 69.5445 105.427 65.8515 115.058 64.2641C115.604 64.1688 116.15 64.0734 116.713 63.9752C121.514 63.4909 126.215 63.1351 130.031 66.4969ZM147.473 93.8946C147.132 94.1115 146.791 94.3285 146.44 94.5521C144.665 95.6852 142.9 96.8327 141.142 97.9924C134.473 102.388 127.587 106.353 120.522 110.076C120.522 110.353 120.522 110.63 120.522 110.916C131.68 111.234 143.633 109.909 152.359 102.222C152.965 101.628 153.562 101.025 154.145 100.409C154.368 100.18 154.59 99.9507 154.82 99.7146C156.885 97.4315 157.736 95.0477 157.632 92.0131C157.465 90.8759 157.106 90.2415 156.246 89.4815C153.317 89.4815 149.878 92.3446 147.473 93.8946ZM96.145 100.409C95.8571 100.548 95.5691 100.686 95.2724 100.829C89.0927 103.815 81.579 107.869 78.4928 114.279C78.6315 114.695 78.7702 115.111 78.9131 115.539C81.1442 115.312 83.0957 114.931 85.2273 114.197C85.638 114.055 85.638 114.055 86.057 113.911C86.9522 113.6 87.8449 113.283 88.7374 112.965C89.2001 112.802 89.2001 112.802 89.6721 112.635C94.6385 110.871 99.496 108.899 104.314 106.766C104.611 106.635 104.908 106.504 105.214 106.369C112.106 103.414 112.106 103.414 118.079 98.9906C118.66 98.4396 118.66 98.4396 119.253 97.8775C119.673 97.4662 119.673 97.4662 120.102 97.0467C119.893 96.4226 119.893 96.4226 119.681 95.7859C112.218 93.2982 102.796 97.0953 96.145 100.409Z" fill="white"/>
<path fill-rule="evenodd" clip-rule="evenodd" d="M373.391 37H372.551C371.057 40.9223 369.597 44.8325 368.453 48.8732C368.153 49.9657 367.838 51.0462 367.507 52.1304C366.865 53.5898 366.278 54.9665 365.824 56.496C365.629 57.2633 365.435 58.0306 365.237 58.797L365.015 59.6482C361.778 72.1704 357.904 84.5448 353.683 96.7667C353.517 97.2485 353.349 97.7338 353.182 98.2155C351.873 101.996 350.563 105.78 349.419 109.614L349.093 110.735C348.43 112.972 348.018 114.911 348.174 117.275C348.335 117.436 348.434 117.535 348.551 117.604C348.74 117.714 348.977 117.745 349.594 117.824C350.182 117.755 350.456 117.723 350.686 117.605C350.886 117.502 351.052 117.333 351.364 117.016L351.93 116.067C352.369 115.355 352.798 114.636 353.217 113.913C355.236 110.395 357.403 106.849 360.556 104.227L361.623 103.406C363.519 101.759 365.394 100.162 367.52 98.8171C370.114 97.4098 372.525 96.3926 375.493 97.1015C377.236 98.008 378.557 99.4869 379.275 101.304C379.33 104.426 378.066 107.149 376.333 109.71C373.731 112.253 370.195 113.903 366.606 114.478C365.454 114.536 364.762 114.507 363.882 113.729C363.075 112.812 362.397 112.744 361.203 112.652L360.362 113.493C360.213 114.657 360.157 115.313 360.861 116.277C362.36 117.414 363.339 118.081 365.265 118.254L366.929 118.221C367.963 118.209 368.997 118.178 370.029 118.116C375.399 116.326 379.286 113.133 382.47 108.502L383.058 107.609C383.766 109.849 384.569 111.474 386.087 113.265C387.914 114.837 389.611 115.328 391.96 115.326L392.882 115.305C399.911 115.337 405.611 111.887 410.85 107.425L412.058 106.348C410.5 109.43 409.174 112.103 409.116 115.594L409.536 116.014C411.517 115.946 412.52 115.368 413.902 113.967L414.547 113.281C415.263 112.549 415.978 111.817 416.686 111.078L416.837 110.921C419.844 107.775 422.826 104.656 426.244 101.946C427.942 100.792 430.169 99.4066 432.281 99.7808C433.157 100.072 433.157 100.072 435.174 100.464C435.293 98.9176 435.369 97.8674 434.596 96.4973C433.493 95.8406 433.493 95.8406 432.534 95.7109C430.521 95.6593 429.222 95.6261 428.005 95.9233C425.793 96.4631 423.848 98.0928 418.371 102.682L417.522 103.406C417.878 101.313 417.878 101.313 418.756 99.3342C419.619 97.1735 420.223 95.2193 420.464 92.8986H419.203C418.362 94.1593 418.362 94.1595 417.916 95.0208C417.781 95.2941 417.648 95.5666 417.515 95.8381C415.697 99.5529 413.978 103.065 410.295 105.287L409.116 105.928C406.576 107.554 404.045 108.965 401.235 110.078C397.45 111.352 392.7 112.256 388.942 110.551C388.471 108.821 388.232 107.944 388.225 107.064C388.218 106.158 388.457 105.25 388.942 103.406C390.885 103.216 392.422 102.847 394.213 102.009L395.01 101.62C396.999 100.667 398.941 99.6883 400.781 98.4658L401.551 97.942C403.311 96.8216 405.003 95.69 406.62 94.3696C407.615 93.0859 407.619 92.3832 407.435 90.7971C405.313 89.603 403.373 89.7357 401.012 90.1076C394.185 91.7917 388.345 96.8907 384.708 102.741L384.319 103.406C384.055 101.68 383.783 99.9709 383.137 98.3426C381.486 95.2342 378.381 93.1216 375.072 92.058C372.649 91.7336 370.823 92.0672 368.673 93.211L367.796 93.7129C365.531 94.9583 363.421 96.3026 361.36 97.8632L361.254 97.9488C360.312 98.7079 359.388 99.4519 358.347 100.075L357.559 100.517L356.159 101.304C361.052 86.957 365.315 72.5825 368.924 57.8585C369.536 55.3607 370.159 52.8668 370.817 50.3808L371.068 49.4363L371.085 49.3727C371.389 48.2253 371.692 47.0778 371.999 45.9312L372.048 45.7511C372.858 42.7876 373.593 40.0978 373.391 37ZM403.5 95.1667C406.981 92.6805 404.176 92.6675 404.003 92.6667C402.638 92.6596 398.644 93.031 397.5 93.6667C395.564 94.24 389.216 99.1681 389.5 101.667C394.3 100.867 396 99.6667 398 98.6667C400 97.6667 399.79 97.8803 401.417 96.6814C401.958 96.2831 402.627 95.79 403.5 95.1667Z" fill="white"/>
<path d="M314.13 60.1159C317.055 61.6833 318.158 64.1422 319.19 67.1755C320.668 72.1004 320.919 76.9894 320.955 82.1138C320.959 82.5984 320.963 83.0829 320.968 83.5822C320.978 85.1378 320.983 86.6934 320.986 88.2491C320.988 88.7774 320.989 89.3056 320.99 89.8499C320.995 112.524 320.995 112.524 316.889 117.602C316.232 118.116 316.232 118.116 314.945 118.352C311.452 117.853 308.7 115.623 306.485 112.958C304.041 109.273 301.101 102.406 301.101 97.942C299.109 99.5983 297.331 101.303 295.657 103.279C294.387 104.707 293.024 106.038 291.656 107.372C290.511 108.497 289.426 109.651 288.376 110.866C286.586 112.932 284.704 114.9 282.793 116.855C282.446 117.221 282.1 117.586 281.743 117.963C281.234 118.481 281.234 118.481 280.716 119.009C280.413 119.322 280.111 119.635 279.799 119.958C278.559 120.825 277.786 120.8 276.304 120.638C275.884 120.217 275.884 120.217 275.858 118.799C276.222 116.148 278.061 114.273 279.667 112.232C282 109.147 283.85 105.865 285.7 102.478C286.569 100.891 287.471 99.3266 288.391 97.7682C290.702 93.8488 292.855 89.8538 294.981 85.8324C295.135 85.5416 295.289 85.2508 295.447 84.9512C296.06 83.7924 296.673 82.6336 297.285 81.4746C308.933 59.4453 308.933 59.4453 314.13 60.1159ZM311.435 64.4137C309.839 66.3405 308.492 68.338 307.222 70.4918C307.008 70.8513 306.795 71.2107 306.575 71.581C303.014 77.6461 299.767 83.8948 296.539 90.142C296.407 90.3969 296.276 90.6517 296.14 90.9143C295.513 92.1269 294.889 93.3405 294.269 94.556C293.001 97.0256 291.672 99.411 290.169 101.747C289.963 102.152 289.963 102.152 289.754 102.565C289.892 102.843 290.031 103.12 290.174 103.406C290.791 102.823 291.403 102.236 292.013 101.646C292.354 101.319 292.695 100.992 293.047 100.656C296.039 97.6831 298.673 94.1307 301.738 91.0565C302.066 90.7298 302.393 90.4031 302.73 90.0665C303.415 89.3811 304.1 88.6952 304.785 88.0088C305.831 86.9605 306.879 85.9145 307.928 84.8687C308.597 84.1995 309.265 83.5303 309.934 82.8608C310.246 82.5499 310.558 82.2391 310.879 81.9188C312.339 80.4519 313.691 78.9772 314.971 77.3478C315.433 77.0341 315.433 77.0341 315.905 76.7141C316.74 76.1422 316.74 76.1422 316.861 75.1446C316.782 69.4909 316.782 69.4909 314.341 64.6078C313.226 63.8555 312.539 63.4564 311.435 64.4137ZM314.93 83.2105C313.711 84.5247 313 84.6667 312 86.1667C311 87.1667 311.5 86.6667 310.5 87.6667C309.5 88.6667 309.934 88.0088 309.087 88.6956C307.954 89.8043 306.837 90.9284 305.725 92.058C305.192 92.5781 305.192 92.5781 304.648 93.1087C303.759 94.6546 304.026 95.8746 304.464 97.5217C304.955 99.0918 305.544 100.614 306.145 102.145C306.34 102.671 306.534 103.198 306.728 103.724C307.851 106.723 309.014 109.408 311.188 111.812C311.63 112.332 311.63 112.332 312.082 112.862C312.92 113.668 312.92 113.668 314.551 113.493C315.46 111.254 316.022 109.276 316.302 106.858C316.356 106.4 316.356 106.4 316.41 105.933C316.523 104.942 316.628 103.951 316.731 102.959C316.768 102.62 316.804 102.282 316.842 101.933C317.569 95.1263 317.685 88.3887 317.493 81.5507C316.469 81.5507 315.671 82.5752 314.93 83.2105Z" fill="white"/>
<path d="M200.025 87.7044C200.446 88.1247 200.446 88.1247 200.446 89.333C199.901 92.6773 197.222 95.528 195.218 98.1328C192.993 101.049 190.687 104.37 189.518 107.878C191.55 107.174 193.274 106.069 195.087 104.936C195.77 104.515 196.454 104.094 197.137 103.674C197.654 103.356 197.654 103.356 198.18 103.032C219.248 90.0895 219.248 90.0895 223.982 90.6464C224.822 91.487 224.822 91.487 224.901 93.0893C224.888 94.4212 224.686 95.6501 224.402 96.9508C224.693 96.8283 224.984 96.7059 225.284 96.5797C226.669 95.9991 228.057 95.4243 229.446 94.8493C229.83 94.6876 229.83 94.6876 230.222 94.5226C235.438 92.3297 240.486 90.4273 246.257 91.0667C246.673 91.3441 247.089 91.6215 247.518 91.9073C247.379 92.4621 247.241 93.0168 247.098 93.5884C246.305 93.7721 246.305 93.7721 245.495 93.9595C231.334 97.314 219.754 103.008 210.834 114.752C209.948 115.907 209.233 116.73 208.011 117.545C206.934 117.676 206.934 117.676 205.909 117.545C205.069 116.284 205.069 116.284 205.123 114.874C205.525 113.19 206.022 112.409 207.144 111.109C207.485 110.714 207.825 110.318 208.177 109.911C209.572 108.392 211.02 106.936 212.493 105.493C213.882 104.111 215.156 102.652 216.417 101.154C216.59 100.948 216.764 100.743 216.943 100.531C217.522 99.8469 218.099 99.1609 218.676 98.4743C218.954 98.1436 218.954 98.1436 219.238 97.8063C220.241 96.6074 220.241 96.6074 221.04 95.2696C219.203 95.5045 217.773 95.9549 216.118 96.7784C215.667 97.0021 215.216 97.2257 214.752 97.4562C214.278 97.6968 213.805 97.9374 213.317 98.1854C212.829 98.4314 212.342 98.6774 211.839 98.9309C207.247 101.277 202.919 103.861 198.738 106.88C197.03 108.101 195.252 109.12 193.406 110.111C193.142 110.253 192.879 110.395 192.608 110.541C190.016 111.903 187.85 112.729 184.895 112.501C184.054 111.661 184.054 111.661 184.028 110.085C184.404 107.139 186.016 104.564 187.417 101.994C187.212 102.137 187.007 102.28 186.796 102.428C180.182 106.949 170.143 113.665 161.779 112.501C160.676 111.819 160.676 111.819 160.098 110.82C159.914 109.295 159.909 108.565 160.81 107.295C170.823 97.8144 185.389 86.9443 200.025 87.7044ZM192.46 92.7479C190.535 93.4553 188.615 94.1773 186.699 94.9086C185.796 95.2469 184.889 95.5674 183.979 95.8853C178.864 97.7433 174.832 100.717 170.605 104.096C170.327 104.315 170.049 104.534 169.763 104.76C167.603 106.462 167.603 106.462 165.561 108.299C165.561 108.576 165.561 108.853 165.561 109.139C173.907 107.409 181 102.383 185.5 99.6667C190 96.9508 191 95.8853 192.88 93.5884C192.672 93.1723 192.672 93.1723 192.46 92.7479Z" fill="white"/>
<path d="M485.346 92.7935C485.887 92.7826 486.427 92.7718 486.984 92.7606C489.046 92.9421 490.448 93.5353 491.913 95C491.755 96.5235 491.755 96.5235 491.493 97.942C491.761 98.0282 492.029 98.1143 492.305 98.2031C492.653 98.3163 493 98.4295 493.358 98.5462C493.704 98.6583 494.05 98.7705 494.407 98.886C495.275 99.2029 495.275 99.2029 495.696 99.6232C495.935 101.342 495.815 101.981 494.776 103.403C494.389 103.812 493.994 104.216 493.594 104.614C493.394 104.823 493.193 105.032 492.987 105.248C492.494 105.76 491.994 106.265 491.493 106.768C493.012 108.353 494.607 109.697 496.352 111.024C500.304 114.083 504.547 117.381 507.464 121.478C507.464 121.756 507.464 122.033 507.464 122.319C501.609 122.807 496.808 117.45 492.581 114.005C491.493 113.072 491.493 113.072 490.496 112.087C488.532 110.098 488.532 110.098 485.924 109.395C484.358 109.534 483.011 110.022 481.537 110.551C478.895 111.43 476.434 111.566 473.657 111.575C473.059 111.581 473.059 111.581 472.45 111.587C470.229 111.561 468.602 111.394 466.696 110.13C465.325 108.303 465.109 106.367 465.19 104.135C465.856 101.007 469.082 99.3382 471.582 97.6793C475.819 94.9809 480.264 92.8543 485.346 92.7935ZM469.217 104.667C469.042 105.682 469.042 105.682 469.217 106.768C470.219 107.807 470.836 108.021 472.279 108.211C475.772 108.215 478.621 107.832 481.826 106.348C482.26 106.174 482.693 106.001 483.139 105.822C484.99 104.696 486.634 103.291 488.13 101.725C488.13 101.447 488.13 101.17 488.13 100.884C483.503 102.041 487.925 99.0136 487.71 96.6812C480.921 96.2286 473.941 99.9429 469.217 104.667Z" fill="white"/>
<path d="M349.435 49.1884C349.851 49.3271 350.267 49.4658 350.696 49.6087C350.792 50.2905 350.877 50.9739 350.958 51.6576C351.007 52.0379 351.056 52.4182 351.106 52.8101C351.12 54.7624 350.712 56.5382 350.275 58.4348C350.188 58.821 350.101 59.2072 350.011 59.6051C348.583 65.7442 346.741 71.6411 344.593 77.5559C342.816 82.4596 341.221 87.3978 339.742 92.3994C339.597 92.8859 339.597 92.8859 339.449 93.3822C338.299 97.2584 337.258 101.133 336.406 105.087C337.862 104.255 337.862 104.255 339.348 103.406C339.151 105.549 338.401 106.972 337.168 108.686C337.01 108.917 336.853 109.149 336.691 109.388C335.522 111.048 334.288 112.319 332.623 113.493C332.207 113.354 331.791 113.215 331.362 113.072C330.05 110.448 331.289 106.956 331.993 104.299C332.118 103.823 332.243 103.348 332.372 102.858C335.798 90.2419 339.972 77.767 344.594 65.5415C345.873 62.1193 346.896 58.7516 347.599 55.1616C348.015 53.0675 348.642 51.1727 349.435 49.1884Z" fill="white"/>
<path d="M463.322 94.6946C463.754 95.4203 463.754 95.4203 463.57 96.3062C463.453 96.6999 463.453 96.6999 463.333 97.1014C462.855 97.1935 462.378 97.2856 461.885 97.3805C455.816 98.604 450.644 100.399 445.681 104.246C445.083 104.675 445.083 104.675 444.473 105.113C442.921 106.528 441.951 107.74 441.793 109.868C441.846 110.414 441.846 110.414 441.899 110.971C443.69 111.867 446.079 111.471 448.045 111.47C448.56 111.47 449.074 111.471 449.604 111.471C452.928 111.452 456.132 111.265 459.411 110.735C461.023 110.523 462.549 110.522 464.174 110.551C463.914 111.347 463.914 111.347 463.333 112.232C462.198 112.648 462.198 112.648 460.766 112.933C460.249 113.039 459.732 113.146 459.199 113.256C458.385 113.412 458.385 113.412 457.554 113.572C457.018 113.681 456.482 113.79 455.929 113.902C443.767 116.359 443.767 116.359 440.015 114.021C438.365 112.655 437.777 111.464 437.433 109.369C437.594 106.262 440.129 103.706 442.319 101.725C442.531 101.506 442.743 101.288 442.961 101.063C447.005 97.1252 457.805 91.1334 463.322 94.6946Z" fill="white"/>
<path d="M174.145 59.7366C173.823 62.5126 171.981 63.8784 169.942 65.6207C167.174 67.6374 164.195 69.1854 161.116 70.6641C160.319 71.0661 159.522 71.4689 158.726 71.8725C157.841 72.3106 156.957 72.7484 156.072 73.1859C155.592 73.4302 155.111 73.6746 154.616 73.9263C149.47 76.4885 143.832 78.6997 138 78.2294C138.609 76.7584 138.797 76.5709 140.312 75.7864C141.693 75.2178 143.088 74.6878 144.482 74.1512C144.815 74.0227 145.148 73.8942 145.491 73.7618C146.161 73.5042 146.832 73.249 147.505 72.9966C148.875 72.475 150.11 71.9733 151.364 71.2043C152.777 70.3799 153.957 69.8297 155.437 69.1734C160.275 66.9808 164.713 64.4201 169.153 61.5131C172.134 59.5643 172.134 59.5643 174.145 59.7366Z" fill="white"/>
</svg>
