<svg width="24" height="24" viewBox="0 0 24 24" fill="none" xmlns="http://www.w3.org/2000/svg">
<path d="M3.93976 17.0859C2.90138 17.0865 2.05763 16.2416 2.05744 15.2034L2.05707 9.43987C2.05669 8.40262 2.90026 7.55793 3.93732 7.55774C4.44151 7.55736 4.91363 7.75293 5.26951 8.10843C5.62538 8.46393 5.82113 8.9368 5.82151 9.43949L5.82094 15.2032C5.82225 15.4503 5.77432 15.6952 5.67996 15.9236C5.58561 16.152 5.44671 16.3593 5.27138 16.5334C5.0971 16.7091 4.88963 16.8484 4.66103 16.9433C4.43243 17.0382 4.18725 17.0866 3.93976 17.0859ZM3.93826 8.06343C3.17832 8.06305 2.56238 8.68049 2.56219 9.43987L2.56313 15.2029C2.56308 15.5681 2.70804 15.9183 2.96615 16.1767C3.22425 16.435 3.57438 16.5803 3.93957 16.5806C4.12041 16.5806 4.29948 16.545 4.46654 16.4758C4.6336 16.4065 4.78537 16.305 4.91318 16.1771C5.04098 16.0492 5.14231 15.8973 5.21137 15.7301C5.28042 15.563 5.31585 15.3839 5.31563 15.2031V9.43911C5.31523 9.07409 5.16994 8.72415 4.91167 8.4662C4.6534 8.20825 4.30328 8.06338 3.93826 8.06343Z" fill="white"/>
<path d="M18.7016 8.34881L18.1957 8.34863L5.79843 8.35031L5.29237 8.3505L5.29199 7.84444C5.29087 5.76694 6.42262 3.83475 8.27643 2.69325L7.55568 1.37756C7.46756 1.22344 7.44543 1.02825 7.49681 0.84975C7.52285 0.760724 7.56632 0.677763 7.62471 0.605692C7.68311 0.533621 7.75524 0.473878 7.83693 0.429938C7.93792 0.374331 8.05146 0.345479 8.16674 0.346125C8.42212 0.346125 8.65593 0.484688 8.77931 0.708563L9.53362 2.08275C10.3204 1.79482 11.1519 1.6485 11.9897 1.65056C12.8533 1.65019 13.6815 1.79625 14.4654 2.08388L15.2186 0.707438C15.2786 0.597624 15.3671 0.506018 15.4748 0.442267C15.5824 0.378515 15.7053 0.344978 15.8304 0.345188C15.9456 0.344824 16.059 0.373042 16.1606 0.427313C16.2424 0.471237 16.3146 0.531118 16.3729 0.603418C16.4312 0.675717 16.4744 0.758968 16.5 0.84825C16.5258 0.936293 16.5337 1.02858 16.5235 1.11974C16.5133 1.2109 16.485 1.29911 16.4404 1.37925L15.72 2.69419C17.5708 3.83813 18.7012 5.76881 18.7011 7.84275L18.7016 8.34881ZM15.0367 2.88806L15.9973 1.134C16.011 1.11196 16.0201 1.08737 16.024 1.0617C16.0279 1.03604 16.0265 1.00986 16.02 0.984745C16.0134 0.959632 16.0018 0.93612 15.9858 0.915642C15.9699 0.895164 15.9499 0.87815 15.9272 0.865638C15.9045 0.853126 15.8794 0.845379 15.8536 0.842869C15.8277 0.840359 15.8017 0.843139 15.7769 0.851039C15.7522 0.858939 15.7294 0.871794 15.7098 0.888819C15.6902 0.905844 15.6743 0.926683 15.663 0.950063L14.6925 2.72194C13.8761 2.35931 12.9621 2.1555 11.9959 2.15644C11.0317 2.1555 10.1194 2.35856 9.30543 2.71988L8.33399 0.951938C8.32214 0.929843 8.30601 0.910325 8.28654 0.894519C8.26707 0.878714 8.24466 0.866935 8.2206 0.859869C8.19654 0.852804 8.17132 0.850591 8.1464 0.85336C8.12147 0.856129 8.09735 0.863825 8.07543 0.876C7.98224 0.925875 7.94793 1.04306 7.99987 1.13456L8.96081 2.88731C7.07268 3.86119 5.79693 5.71556 5.79806 7.84463L18.1952 7.84313C18.1957 5.71481 16.9222 3.86419 15.0367 2.88806ZM9.17624 5.59875C9.03837 5.59868 8.90618 5.54384 8.80874 5.44629C8.7113 5.34875 8.65661 5.2165 8.65668 5.07863C8.65675 4.94075 8.7116 4.80856 8.80914 4.71112C8.90668 4.61369 9.03893 4.55899 9.17681 4.55906C9.31469 4.55931 9.44686 4.61418 9.54438 4.71167C9.6419 4.80915 9.69682 4.9413 9.69712 5.07919C9.69692 5.21715 9.64194 5.34939 9.54426 5.44682C9.44658 5.54425 9.31421 5.5989 9.17624 5.59875ZM14.8213 5.59763C14.753 5.59775 14.6854 5.5844 14.6223 5.55833C14.5592 5.53227 14.5019 5.494 14.4536 5.44574C14.4053 5.39747 14.367 5.34014 14.3409 5.27705C14.3148 5.21396 14.3015 5.14634 14.3016 5.07806C14.302 4.94023 14.357 4.80817 14.4543 4.71062C14.5517 4.61307 14.6837 4.55793 14.8215 4.55719C14.9591 4.55832 15.0908 4.61365 15.1879 4.71119C15.285 4.80873 15.3398 4.94061 15.3403 5.07825C15.3403 5.14643 15.3269 5.21395 15.3009 5.27695C15.2748 5.33995 15.2366 5.3972 15.1884 5.44543C15.1402 5.49366 15.083 5.53192 15.02 5.55803C14.957 5.58415 14.8895 5.5976 14.8213 5.59763ZM9.69581 23.6548C8.65837 23.6546 7.81406 22.8109 7.81387 21.7727L7.81349 19.2289L7.31887 19.2294C7.05943 19.2303 6.8024 19.1797 6.56268 19.0805C6.32295 18.9813 6.10531 18.8355 5.92237 18.6516C5.73815 18.4686 5.59217 18.2509 5.49293 18.011C5.39369 17.7711 5.34317 17.5139 5.34431 17.2543L5.34243 8.32425V7.81781H5.84849L18.1528 7.81594L18.6591 7.81556V8.32163L18.6604 17.2528C18.6606 18.342 17.7744 19.2283 16.6856 19.2281L16.188 19.2285L16.1886 21.7714C16.1886 22.809 15.3444 23.6537 14.3074 23.6537C14.0601 23.6548 13.815 23.6068 13.5865 23.5122C13.358 23.4177 13.1507 23.2785 12.9765 23.103C12.8008 22.9289 12.6615 22.7216 12.5666 22.4932C12.4718 22.2648 12.4233 22.0198 12.4239 21.7725V19.2285H11.5781V21.7719C11.5777 22.8097 10.7338 23.655 9.69581 23.6548Z" fill="white"/>
<path d="M5.85094 17.2541C5.85052 17.4471 5.88821 17.6383 5.96184 17.8167C6.03546 17.9951 6.14358 18.1572 6.28 18.2937C6.41641 18.4302 6.57844 18.5385 6.75678 18.6122C6.93512 18.686 7.12626 18.7238 7.31926 18.7236H8.31919L8.32032 21.7731C8.32013 22.5324 8.93701 23.1495 9.69563 23.1497C9.87644 23.1496 10.0555 23.1139 10.2225 23.0446C10.3895 22.9753 10.5412 22.8738 10.669 22.7458C10.7967 22.6179 10.898 22.466 10.9671 22.2989C11.0362 22.1318 11.0717 21.9528 11.0715 21.7719L11.0717 18.7234L12.9296 18.7228L12.9294 21.7721C12.9302 22.5317 13.5478 23.1495 14.3063 23.148C15.0668 23.1486 15.6833 22.5308 15.6831 21.771L15.6821 18.7224L16.6858 18.7223C17.4956 18.7224 18.1543 18.0645 18.1543 17.2528L18.1526 8.32126L5.84869 8.32351L5.85094 17.2541ZM20.0618 17.0835C19.0238 17.0837 18.1794 16.2401 18.1796 15.2018L18.1781 9.43838C18.1785 8.40019 19.0215 7.55569 20.0589 7.55569C21.0977 7.55551 21.9426 8.39982 21.9424 9.43782L21.9429 15.2008C21.9431 16.2384 21.0996 17.0837 20.0618 17.0835ZM20.0599 8.06176C19.2999 8.06101 18.6842 8.67807 18.6842 9.43838L18.6848 15.2016C18.6847 15.3824 18.7202 15.5614 18.7894 15.7284C18.8585 15.8955 18.9599 16.0473 19.0878 16.1751C19.2156 16.3029 19.3674 16.4043 19.5345 16.4734C19.7015 16.5425 19.8806 16.578 20.0614 16.5778C20.2421 16.5778 20.4211 16.5422 20.5881 16.473C20.7551 16.4038 20.9068 16.3024 21.0346 16.1745C21.1624 16.0466 21.2637 15.8949 21.3328 15.7278C21.4019 15.5608 21.4374 15.3818 21.4373 15.201L21.4358 9.43801C21.4359 9.25727 21.4004 9.07828 21.3313 8.91128C21.2622 8.74427 21.1609 8.59253 21.0331 8.46471C20.9053 8.33689 20.7536 8.23552 20.5866 8.16637C20.4196 8.09723 20.2406 8.06168 20.0599 8.06176Z" fill="white"/>
<path d="M3.93826 8.06344C3.17832 8.06306 2.56238 8.6805 2.56219 9.43988L2.56313 15.2029C2.56301 15.3837 2.59853 15.5628 2.66767 15.7299C2.7368 15.8969 2.8382 16.0488 2.96605 16.1766C3.0939 16.3045 3.24571 16.4059 3.41279 16.4751C3.57986 16.5442 3.75893 16.5798 3.93976 16.5797C4.12056 16.5799 4.29962 16.5444 4.46669 16.4753C4.63376 16.4062 4.78554 16.3048 4.91335 16.1769C5.04116 16.049 5.14249 15.8972 5.21152 15.7301C5.28055 15.5629 5.31593 15.3839 5.31563 15.2031V9.43913C5.31523 9.0741 5.16994 8.72416 4.91167 8.46621C4.6534 8.20826 4.30328 8.06339 3.93826 8.06344ZM15.0368 2.88806L15.9973 1.134C16.0218 1.0895 16.0276 1.03712 16.0135 0.988334C15.9994 0.939548 15.9666 0.898342 15.9221 0.873751C15.8776 0.849675 15.8254 0.844186 15.7768 0.858483C15.7283 0.872781 15.6874 0.905703 15.663 0.950063L14.6927 2.7225C13.8763 2.35913 12.9626 2.1555 11.9959 2.15644C11.0318 2.1555 10.1184 2.35856 9.30544 2.71988L8.33401 0.951938C8.32215 0.92987 8.30603 0.910374 8.28658 0.89458C8.26713 0.878786 8.24475 0.867008 8.22071 0.859928C8.19668 0.852847 8.17148 0.850606 8.14658 0.853332C8.12168 0.856059 8.09756 0.8637 8.07563 0.875813C8.05349 0.887647 8.03393 0.903778 8.0181 0.923261C8.00227 0.942745 7.99048 0.96519 7.98343 0.989283C7.97638 1.01338 7.9742 1.03864 7.97702 1.06358C7.97985 1.08853 7.98762 1.11266 7.99988 1.13456L8.96082 2.8875C7.07269 3.86119 5.79694 5.71556 5.79807 7.84463L18.1952 7.84313C18.1958 5.71481 16.9223 3.86419 15.0368 2.88806ZM9.17626 5.59875C9.03839 5.59868 8.90619 5.54383 8.80875 5.44629C8.71132 5.34875 8.65662 5.2165 8.65669 5.07863C8.65677 4.94075 8.71161 4.80856 8.80915 4.71112C8.90669 4.61369 9.03895 4.55899 9.17682 4.55906C9.31471 4.55931 9.44688 4.61418 9.5444 4.71167C9.64191 4.80915 9.69683 4.9413 9.69713 5.07919C9.69693 5.21715 9.64195 5.34939 9.54427 5.44682C9.44659 5.54425 9.31422 5.5989 9.17626 5.59875ZM14.8213 5.59763C14.7531 5.59767 14.6855 5.58427 14.6224 5.55818C14.5593 5.53209 14.502 5.49382 14.4538 5.44557C14.4055 5.39732 14.3672 5.34002 14.3411 5.27696C14.315 5.2139 14.3015 5.14632 14.3016 5.07806C14.3023 4.94031 14.3573 4.80839 14.4546 4.71089C14.5519 4.6134 14.6838 4.55817 14.8215 4.55719C14.9591 4.55832 15.0908 4.61365 15.1879 4.71119C15.285 4.80873 15.3398 4.94061 15.3403 5.07825C15.3404 5.14644 15.327 5.21398 15.301 5.27701C15.2749 5.34003 15.2367 5.3973 15.1885 5.44554C15.1403 5.49377 15.0831 5.53204 15.02 5.55813C14.957 5.58423 14.8895 5.59765 14.8213 5.59763ZM5.84869 8.3235L5.85076 17.2551C5.85054 17.448 5.88837 17.639 5.96209 17.8173C6.03581 17.9955 6.14398 18.1575 6.28039 18.2939C6.4168 18.4303 6.57877 18.5384 6.75704 18.6121C6.9353 18.6858 7.12636 18.7236 7.31926 18.7234L8.31919 18.7237L8.32032 21.7732C8.32013 22.5326 8.93738 23.1499 9.69563 23.1499C10.4561 23.1499 11.0723 22.5321 11.0724 21.7723L11.0717 18.7236L12.9296 18.723L12.9304 21.7723C12.9304 22.5311 13.5478 23.1497 14.3063 23.1482C15.0668 23.1487 15.6833 22.5309 15.6831 21.7712L15.6821 18.7226L16.6856 18.7219C16.8786 18.7219 17.0696 18.6839 17.2478 18.6101C17.4261 18.5363 17.588 18.4281 17.7245 18.2917C17.8609 18.1553 17.9691 17.9934 18.043 17.8152C18.1168 17.6369 18.1549 17.4459 18.1549 17.253L18.1532 8.32144L5.84869 8.3235ZM21.4363 9.43781C21.4363 9.25707 21.4008 9.07809 21.3316 8.9111C21.2624 8.74411 21.161 8.59239 21.0332 8.4646C20.9054 8.33681 20.7536 8.23546 20.5866 8.16634C20.4196 8.09722 20.2406 8.06168 20.0599 8.06175C19.2999 8.061 18.6842 8.67806 18.6842 9.43838L18.6853 15.2017C18.6852 15.3825 18.7207 15.5615 18.7898 15.7285C18.8589 15.8955 18.9603 16.0472 19.0881 16.175C19.2159 16.3029 19.3676 16.4042 19.5346 16.4733C19.7016 16.5424 19.8806 16.5779 20.0614 16.5778C20.2422 16.5778 20.4212 16.5422 20.5882 16.473C20.7552 16.4038 20.9069 16.3024 21.0347 16.1746C21.1624 16.0467 21.2638 15.8949 21.3328 15.7278C21.4019 15.5608 21.4374 15.3818 21.4373 15.201L21.4363 9.43781Z" fill="#A4C439"/>
</svg>
