<svg width="24" height="24" viewBox="0 0 24 24" fill="none" xmlns="http://www.w3.org/2000/svg">
<g clip-path="url(#clip0_29_231)">
<path d="M11.9644 0.192383L0.853699 4.10251L2.60926 18.6594L11.9762 23.8076L21.3913 18.5899L23.1463 4.03332L11.9644 0.192383Z" fill="#B3B3B3"/>
<path d="M22.038 4.87464L11.9385 1.43045V22.5776L20.4024 17.8933L22.038 4.87464Z" fill="#A6120D"/>
<path d="M2.10016 4.93668L3.60503 17.9556L11.9383 22.5776V1.43005L2.10016 4.93668Z" fill="#DD1B16"/>
<path d="M14.7185 12.6881L11.9385 13.9882H9.00822L7.63066 17.4334L5.06885 17.481L11.9385 2.19824L14.7185 12.6881ZM14.4497 12.0336L11.9568 7.09837L9.91197 11.9486H11.9383L14.4497 12.0336Z" fill="#F2F2F2"/>
<path d="M11.9383 2.19824L11.9567 7.09837L14.277 11.9524H11.9434L11.9383 13.9851L15.165 13.9882L16.6729 17.4814L19.1242 17.5267L11.9383 2.19824Z" fill="#B3B3B3"/>
</g>
<defs>
<clipPath id="clip0_29_231">
<rect width="24" height="24" fill="white"/>
</clipPath>
</defs>
</svg>
