<svg width="24" height="24" viewBox="0 0 24 24" fill="none" xmlns="http://www.w3.org/2000/svg">
<path d="M3.4168 5.6134L0.0266224 9.00785L5.25482 14.2517L0 19.5223L3.37957 22.9182L8.64497 17.6462L13.8819 22.8806L17.272 19.4861L3.4168 5.6134Z" fill="#53B9FF"/>
<path d="M12.0443 14.2518L8.64508 17.6462L13.882 22.8806L17.2721 19.4862L12.0443 14.2518Z" fill="#119EFF"/>
<path d="M12.0443 14.2518L8.64508 17.6462L9.95363 18.9475L12.0443 14.2518Z" fill="black" fill-opacity="0.2"/>
<path d="M16.6774 9.63088L21.9429 4.35883L18.5512 0.975006L13.2873 6.23646L8.04999 1.00166L4.65982 4.39612L18.5151 18.2688L21.9053 14.8743L16.6774 9.63088Z" fill="#53B9FF"/>
<path d="M9.888 9.63102L13.2873 6.23659L8.04999 1.0018L4.65982 4.39625L9.888 9.63102Z" fill="#119EFF"/>
<path d="M9.88791 9.63089L13.2872 6.23646L11.9783 4.93481L9.88791 9.63089Z" fill="black" fill-opacity="0.2"/>
</svg>
