<svg width="24" height="24" viewBox="0 0 24 24" fill="none" xmlns="http://www.w3.org/2000/svg">
<path d="M3.68811 4.875L5.20105 21.8424L11.9897 23.7268L18.7972 21.84L20.3119 4.875H3.68811ZM16.665 14.3415L16.2244 18.4462L16.226 18.7978L12 19.9781V19.9783L11.9966 19.9811L7.7368 18.8139L7.44861 15.5625H9.53755L9.68567 17.2061L12.0007 17.8239L12 17.8267V17.8207L14.3239 17.1654L14.5691 14.4375H9.71155L9.66992 13.9959L9.57505 12.9371L9.52536 12.375H14.754L14.9441 10.3125H6.98042L6.93861 9.82706L6.84374 8.69644L6.79405 8.0625H17.2185L17.1684 8.68762L16.665 14.3415ZM16.6875 2.69512L15.347 1.125H16.6875V0.1875H13.6875V1.00556L15.2606 2.4375H13.6875V3.375H16.6875V2.69512ZM13.125 2.69512L11.8487 1.125H13.125V0.1875H10.3125V1.00556L11.7624 2.4375H10.3125V3.375H13.125V2.69512ZM9.74999 2.4375H8.24999V1.125H9.74999V0.1875H7.12499V3.375H9.74999V2.4375Z" fill="#1572B6"/>
</svg>
