<svg width="24" height="24" viewBox="0 0 24 24" fill="none" xmlns="http://www.w3.org/2000/svg">
<g clip-path="url(#clip0_29_246)">
<mask id="mask0_29_246" style="mask-type:alpha" maskUnits="userSpaceOnUse" x="0" y="0" width="24" height="24">
<path d="M12 0C18.6327 0 24 5.36727 24 12C24 18.6327 18.6327 24 12 24C5.36727 24 0 18.6327 0 12C0 5.36727 5.36727 0 12 0Z" fill="white"/>
</mask>
<g mask="url(#mask0_29_246)">
<g filter="url(#filter0_d_29_246)">
<path d="M12 0.28125C18.4773 0.28125 23.7188 5.52273 23.7188 12C23.7188 18.4773 18.4773 23.7188 12 23.7188C5.52273 23.7188 0.28125 18.4773 0.28125 12C0.28125 5.52273 5.52273 0.28125 12 0.28125Z" fill="black"/>
</g>
<path d="M12 0.28125C18.4773 0.28125 23.7188 5.52273 23.7188 12C23.7188 18.4773 18.4773 23.7188 12 23.7188C5.52273 23.7188 0.28125 18.4773 0.28125 12C0.28125 5.52273 5.52273 0.28125 12 0.28125Z" fill="white"/>
<path d="M12 0.692444C18.25 0.692444 23.3076 5.75001 23.3076 12C23.3076 18.25 18.25 23.3076 12 23.3076C5.75001 23.3076 0.692444 18.25 0.692444 12C0.692444 5.75001 5.75001 0.692444 12 0.692444Z" fill="#5C5C5E"/>
<path d="M18.0033 16.9753C17.5921 18.25 16.9753 19.1957 16.1118 19.8947C15.2484 20.5938 14.097 20.9638 12.6579 21.0872L12.3701 19.1957C13.3158 19.0724 14.0148 18.8668 14.4671 18.5378C14.6316 18.4145 14.9605 18.0444 14.9605 18.0444L11.5477 7.10691H14.3849L16.3586 15.2895L18.4556 7.10691H21.2105L18.0033 16.9753ZM8.09375 6.73685C8.75165 6.73685 9.36842 6.81908 9.86184 7.02468C10.3964 7.23027 10.8898 7.5181 11.3832 7.92928L10.2319 9.49178C9.90296 9.24507 9.57401 9.0806 9.28618 8.95724C8.99836 8.83389 8.62829 8.79277 8.29934 8.79277C6.90132 8.79277 6.2023 9.86185 6.2023 12.0411C6.2023 13.1513 6.36678 13.9326 6.73684 14.3849C7.10691 14.8783 7.60033 15.0839 8.29934 15.0839C8.62829 15.0839 8.95724 15.0428 9.24507 14.9194C9.5329 14.7961 9.86184 14.6316 10.273 14.3849L11.4243 16.0296C10.4786 16.8109 9.40954 17.1809 8.17599 17.1809C7.18914 17.1809 6.36678 16.9753 5.62664 16.5641C4.92763 16.153 4.35197 15.5362 3.98191 14.7549C3.61184 13.9737 3.40625 13.0691 3.40625 12C3.40625 10.972 3.61184 10.0263 3.98191 9.24507C4.35197 8.4227 4.92763 7.80593 5.62664 7.35362C6.32566 6.98356 7.14803 6.73685 8.09375 6.73685Z" fill="white"/>
</g>
</g>
<defs>
<filter id="filter0_d_29_246" x="-3.71875" y="-3.71875" width="31.4375" height="31.4375" filterUnits="userSpaceOnUse" color-interpolation-filters="sRGB">
<feFlood flood-opacity="0" result="BackgroundImageFix"/>
<feColorMatrix in="SourceAlpha" type="matrix" values="0 0 0 0 0 0 0 0 0 0 0 0 0 0 0 0 0 0 127 0" result="hardAlpha"/>
<feOffset/>
<feGaussianBlur stdDeviation="2"/>
<feColorMatrix type="matrix" values="0 0 0 0 0 0 0 0 0 0 0 0 0 0 0 0 0 0 0.3 0"/>
<feBlend mode="normal" in2="BackgroundImageFix" result="effect1_dropShadow_29_246"/>
<feBlend mode="normal" in="SourceGraphic" in2="effect1_dropShadow_29_246" result="shape"/>
</filter>
<clipPath id="clip0_29_246">
<rect width="24" height="24" fill="white"/>
</clipPath>
</defs>
</svg>
