<svg width="24" height="24" viewBox="0 0 24 24" fill="none" xmlns="http://www.w3.org/2000/svg">
<path d="M11.0655 2.49901C11.0207 2.50351 10.878 2.5202 10.749 2.53201C8.91581 2.72382 7.11038 3.50026 5.63813 4.73289C5.36644 4.95845 4.7475 5.57739 4.52194 5.84907C3.30319 7.3052 2.59069 8.93907 2.32763 10.8728C2.26913 11.3021 2.26913 12.7508 2.32763 13.1799C2.5905 15.1134 3.30319 16.7475 4.52194 18.2036C4.7475 18.4755 5.36644 19.0943 5.63813 19.3198C7.09425 20.5386 8.72813 21.2511 10.6618 21.5141C11.0912 21.5728 12.5398 21.5728 12.969 21.5141C14.9025 21.2513 16.5366 20.5386 17.9927 19.3198C18.2646 19.0943 18.8833 18.4753 19.1089 18.2036C20.3276 16.7475 21.0401 15.1136 21.3026 13.1799C21.3619 12.7506 21.3619 11.3019 21.3026 10.8728C21.0401 8.93926 20.3276 7.3052 19.1089 5.84907C18.8833 5.57739 18.2644 4.95845 17.9927 4.73289C16.5418 3.51864 14.8909 2.79714 12.9829 2.54157C12.7764 2.51289 12.4768 2.50126 11.9209 2.49676C11.4968 2.4917 11.1094 2.4947 11.0655 2.49901ZM11.1827 3.51189C11.1827 3.78582 11.2009 4.38132 11.2273 4.94682C11.2412 5.22282 11.2573 5.6192 11.2648 5.82564C11.2903 6.55745 11.3679 8.47689 11.3796 8.64845L11.3914 8.81907L11.2858 8.80745C11.2273 8.80295 11.1731 8.78907 11.1636 8.78176C11.157 8.77239 11.1401 8.61039 11.1306 8.42064C11.0889 7.58626 10.9506 4.34832 10.9365 3.87526L10.9219 3.35457L10.9879 3.34576C11.0229 3.34051 11.0816 3.33395 11.1189 3.33114L11.1827 3.32889V3.51189ZM13.4259 3.45564C13.4282 3.4577 13.4355 4.16607 13.4421 5.02876C13.4516 5.89389 13.4634 6.66939 13.4708 6.75376C13.4773 6.84076 13.4751 6.91557 13.4633 6.92064C13.4539 6.9272 13.3952 6.9272 13.3367 6.92064L13.2291 6.91126L13.2129 6.22857C13.2053 5.91848 13.1966 5.60842 13.1867 5.29839C13.1681 4.88307 13.1514 3.47457 13.1661 3.43951C13.1749 3.41326 13.2011 3.41082 13.2992 3.4277C13.3674 3.44157 13.4239 3.45339 13.4259 3.45564ZM8.00325 4.2407C8.01788 4.26189 8.12775 5.55395 8.26388 7.2437C8.30869 7.81857 8.35256 8.34376 8.35988 8.40901C8.3715 8.52826 8.36925 8.53351 8.29388 8.58039C8.25225 8.60589 8.20969 8.62726 8.20013 8.62726C8.19356 8.62726 8.17969 8.56632 8.17238 8.49095C8.13938 8.18626 8.01263 6.7142 7.92413 5.64995C7.872 5.0237 7.82513 4.46345 7.81857 4.40251C7.80694 4.29939 7.80919 4.28982 7.86994 4.25757C7.94456 4.21726 7.98713 4.2107 8.00306 4.2407H8.00325ZM14.4572 4.71245C14.5232 4.73589 14.5298 4.74751 14.5444 4.88082C14.5678 5.1152 14.5605 6.23589 14.535 6.23589C14.4668 6.23589 14.3261 6.15601 14.3145 6.11139C14.307 6.08345 14.3006 5.75101 14.3006 5.37301C14.3006 4.61139 14.2911 4.65601 14.4572 4.71245ZM10.1273 4.82232C10.1273 4.88532 10.1441 5.23464 10.1623 5.60307C10.1814 5.97057 10.2026 6.43726 10.2122 6.63939C10.2283 7.04739 10.2328 7.03276 10.0759 7.04232C9.99825 7.04438 9.99825 7.04439 9.99394 6.9272C9.98944 6.86214 9.97782 6.65776 9.96319 6.47026C9.95138 6.28276 9.92363 5.87701 9.9045 5.56782C9.89174 5.34008 9.87542 5.11255 9.85557 4.88532C9.8415 4.76814 9.84375 4.76364 9.90675 4.7402C9.94481 4.72632 10.0099 4.7147 10.0524 4.7147C10.1273 4.71245 10.1273 4.71245 10.1273 4.82232ZM16.6303 5.14389L16.7102 5.17595L16.7271 5.4902C16.7336 5.66157 16.7387 6.03207 16.7336 6.31145L16.7271 6.82182L16.6283 6.7727L16.53 6.72582L16.5227 5.94732C16.5184 5.51889 16.5204 5.15551 16.5249 5.13864C16.5343 5.10357 16.5343 5.10357 16.6303 5.14389ZM12.3501 5.45064C12.3639 5.4647 12.3969 6.60132 12.3992 7.17845L12.4014 7.5257L12.2916 7.50882C12.2278 7.50132 12.1764 7.49495 12.1744 7.4927C12.1669 7.48764 12.0968 5.75082 12.0968 5.58189V5.40826L12.216 5.42214C12.2843 5.43151 12.3428 5.44332 12.3501 5.45064ZM17.7488 5.61695C17.7774 5.64995 17.7818 6.16332 17.7891 8.99495C17.7956 12.2468 17.7956 12.3311 17.7538 12.3311C17.7239 12.3293 17.6952 12.3186 17.6713 12.3004C17.6361 12.2747 17.6316 11.9912 17.6199 9.2132C17.6104 7.53001 17.5986 6.00132 17.592 5.81626L17.5774 5.47857L17.6454 5.52751C17.6858 5.5562 17.7306 5.59576 17.7488 5.61695ZM15.6459 6.09751C15.6578 6.10689 15.6694 6.2402 15.6716 6.39339C15.6834 6.91107 15.6855 10.0877 15.6739 10.0973C15.6694 10.1016 15.627 10.0898 15.5801 10.0716L15.4958 10.0363V6.0482L15.5618 6.06226C15.597 6.07164 15.6343 6.0857 15.6461 6.09751H15.6459ZM9.17588 6.22857C9.18244 6.29232 9.19407 6.43501 9.20138 6.5522C9.20888 6.66732 9.22481 6.9302 9.23888 7.13382C9.26738 7.54632 9.26213 7.57257 9.12881 7.57257C9.05869 7.57257 9.04913 7.56507 9.03956 7.49495C9.01613 7.35639 8.934 6.20289 8.94581 6.18451C8.95744 6.16764 9.07988 6.12601 9.13556 6.12076C9.15019 6.1187 9.16838 6.16764 9.17588 6.22857ZM5.29838 6.82689C5.32406 7.07514 5.37525 7.59601 5.41331 7.98264C5.45288 8.36945 5.48588 8.69757 5.48588 8.71145C5.48588 8.73995 5.30494 8.82864 5.28656 8.81026C5.27494 8.79864 5.04057 6.72357 5.04057 6.62982C5.04057 6.57357 5.22057 6.33695 5.24419 6.36264C5.2515 6.36695 5.27494 6.57564 5.29838 6.82689ZM14.4902 7.07307L14.5584 7.11245L14.5605 7.61945C14.5628 7.89545 14.568 8.20539 14.568 8.3057C14.5723 8.51664 14.5466 8.5517 14.4199 8.50782L14.3475 8.48157V8.28001C14.3475 8.16807 14.34 7.84201 14.3306 7.55345L14.3166 7.03276H14.3709C14.3987 7.03276 14.4529 7.0517 14.4902 7.07307ZM6.32738 7.98264C6.36994 8.43245 6.43725 9.19201 6.48188 9.67014L6.56175 10.5383L6.47025 10.6288L6.38157 10.7205L6.36469 10.5351C6.35531 10.4319 6.30844 9.95439 6.25931 9.47101C6.20632 8.95235 6.15482 8.43353 6.10481 7.91457L6.03882 7.2392L6.13031 7.15501C6.21244 7.07739 6.222 7.07514 6.23813 7.11751C6.2475 7.14114 6.28706 7.53001 6.32738 7.98264ZM4.57182 8.26614C4.623 8.72832 4.75932 9.95664 4.8765 10.9952C4.99369 12.0338 5.10338 13.0343 5.12475 13.2218C5.14388 13.4093 5.17594 13.6933 5.19507 13.8553C5.22807 14.1291 5.22807 14.1482 5.19075 14.1759C5.13432 14.2185 5.11088 14.2134 5.11088 14.1643C5.11088 14.1431 5.08969 13.965 5.064 13.7732C5.02144 13.4516 4.95113 12.9075 4.79438 11.6865C4.74607 11.3234 4.69919 10.9602 4.65375 10.5968C4.60688 10.2422 4.53882 9.71495 4.50075 9.42414C4.46325 9.13332 4.40044 8.63664 4.36013 8.31526C4.31832 7.99651 4.29263 7.7132 4.29938 7.68245C4.31625 7.61945 4.45388 7.39895 4.4685 7.41282C4.47282 7.41939 4.51969 7.8017 4.57163 8.26595L4.57182 8.26614ZM3.85407 9.2762C3.88913 9.5582 3.95513 10.0716 3.99975 10.4201C4.04363 10.7674 4.10006 11.2009 4.12575 11.382L4.17038 11.7101L4.12125 11.7525C4.0935 11.7759 4.065 11.7848 4.05544 11.7759C4.04663 11.7664 4.0275 11.6726 4.01363 11.5693C3.9503 11.1235 3.88537 10.678 3.81882 10.2326L3.6525 9.0842L3.70613 8.92464C3.73463 8.8382 3.76463 8.76789 3.77194 8.76789C3.7815 8.76789 3.81657 8.99776 3.85407 9.27601V9.2762ZM16.7241 8.96926C16.7571 9.00226 16.7621 9.14739 16.7621 10.2238V11.4405H16.6963C16.5534 11.4405 16.5557 11.4756 16.5463 10.1441L16.5396 8.93195H16.6142C16.6538 8.93195 16.7059 8.94807 16.7241 8.96926ZM11.5928 9.38889C12.1223 9.46876 12.5846 9.6167 13.0416 9.85107C13.3367 10.0035 13.4773 10.1089 13.8054 10.4229C14.2931 10.8898 14.5935 11.2976 14.8748 11.8742C15.285 12.7134 15.4448 13.4561 15.6459 15.4491C15.7376 16.3425 15.8569 17.9619 15.8826 18.6253C15.8901 18.8181 15.906 19.1346 15.9206 19.3284C15.9463 19.7417 15.9763 19.6853 15.6131 19.861C15.1091 20.1051 14.6235 20.2734 13.9841 20.4309C13.2011 20.6228 12.6943 20.6835 11.9209 20.6865L11.3584 20.6888L11.3629 20.4191C11.3629 20.2712 11.3768 19.9269 11.3914 19.6575C11.4617 18.3516 11.4471 16.7036 11.3561 15.7888C11.3042 15.2638 11.2039 14.6263 11.1474 14.4857C11.1358 14.4551 11.1893 14.4294 11.4214 14.3496C11.8463 14.2016 12.2139 14.0164 12.2702 13.9256C12.3714 13.752 12.1905 13.503 11.9604 13.503C11.9211 13.503 11.8014 13.5454 11.691 13.5945C11.1658 13.8362 10.1134 14.1195 9.50607 14.1833C9.08644 14.2281 8.4345 14.2016 7.98263 14.1195C7.73663 14.0749 7.29563 13.9088 6.92719 13.719C6.50325 13.4985 6.24319 13.2056 6.16556 12.8584C6.123 12.6709 6.13481 12.2959 6.189 12.0849C6.2475 11.8528 6.41156 11.5151 6.56175 11.3181C7.22981 10.4393 8.60813 9.67745 10.0217 9.41026C10.4723 9.32589 11.1094 9.31651 11.5929 9.38889H11.5928ZM18.8246 9.46145C18.909 9.49651 18.9184 9.50607 18.9184 9.58595C18.9236 10.2261 18.909 11.6888 18.8972 11.7497C18.8949 11.7707 18.7734 11.7729 18.7215 11.7546C18.6893 11.7429 18.684 11.6162 18.684 10.5819C18.684 9.84151 18.6936 9.42414 18.7074 9.42414C18.7193 9.42414 18.7734 9.44101 18.8246 9.46145ZM19.8493 10.749L19.9337 10.7843L19.9176 12.7251C19.8984 15.1986 19.8962 15.2709 19.8069 15.4841C19.6618 15.8334 19.6691 15.9038 19.6832 14.3709C19.6875 13.6041 19.6991 12.8284 19.7044 12.6474C19.7087 12.4674 19.7132 11.9582 19.716 11.5151C19.716 10.9804 19.7226 10.7139 19.7394 10.7139C19.7535 10.7139 19.8024 10.7301 19.8493 10.749ZM5.751 11.3327C5.76488 11.5224 5.75981 11.5408 5.69156 11.6908L5.61694 11.8506L5.58919 11.6162C5.54438 11.2412 5.54438 11.2243 5.63306 11.1686C5.67338 11.1401 5.71575 11.1218 5.7225 11.1263C5.72982 11.1306 5.74369 11.2243 5.751 11.3327ZM4.30163 12.7464C4.32281 12.9383 4.48688 14.2134 4.57163 14.8397C4.69781 15.8079 4.70719 15.9463 4.65094 15.8878C4.64438 15.8803 4.59 15.5544 4.53375 15.1633C4.16813 12.6358 4.17038 12.6527 4.20113 12.6336C4.26413 12.591 4.2855 12.6144 4.30144 12.7463L4.30163 12.7464ZM5.98969 13.8201C6.00375 13.8788 6.07181 14.5138 6.07181 14.5913C6.07181 14.6565 5.98744 14.718 5.95013 14.6799C5.9385 14.6681 5.90775 14.469 5.88431 14.2397C5.85863 14.0076 5.83294 13.7659 5.82563 13.7029L5.81175 13.5857L5.89388 13.6794C5.94075 13.7306 5.98238 13.7938 5.98969 13.8201ZM7.88157 14.7034C7.90725 14.7268 7.92413 14.8206 7.94456 15.0741C7.97981 15.531 7.98488 15.4959 7.88888 15.4959C7.79007 15.4959 7.79232 15.5033 7.76007 15.09C7.72707 14.6704 7.72707 14.6756 7.79006 14.6756C7.82082 14.6756 7.86038 14.6895 7.88157 14.7034ZM9.73838 14.7385C9.74269 14.7619 9.75431 14.9025 9.76388 15.0506C9.77138 15.1986 9.79257 15.531 9.81075 15.7888C9.87675 16.7357 9.879 16.8559 9.83944 16.8559C9.79463 16.8559 9.78957 16.8208 9.73819 16.1522C9.71537 15.8291 9.68949 15.5063 9.66056 15.1838C9.64013 14.9289 9.6255 14.715 9.63281 14.7107C9.6585 14.6822 9.72656 14.7034 9.73838 14.7385ZM5.33138 15.189C5.34525 15.2102 5.43375 15.9602 5.54438 16.9849C5.57738 17.2939 5.60963 17.592 5.61694 17.6477L5.62875 17.749L5.57007 17.7114C5.52544 17.6807 5.50931 17.6507 5.50931 17.5965C5.50931 17.4484 5.40807 16.4758 5.33119 15.8803C5.28657 15.5428 5.2515 15.2454 5.2515 15.2168C5.2515 15.1678 5.30775 15.1487 5.33138 15.189ZM18.8599 16.1689L18.8438 17.1489L18.7851 17.2352C18.6512 17.4324 18.6585 17.4696 18.6658 16.3727L18.6701 15.3669L18.7566 15.2775C18.8034 15.2306 18.8503 15.1913 18.8597 15.1913C18.8672 15.1913 18.8672 15.6321 18.8597 16.1689H18.8599ZM16.6918 17.7233C16.7036 19.0854 16.7006 19.191 16.6633 19.2326C16.6399 19.2583 16.6187 19.2752 16.6121 19.2679C16.5953 19.2495 16.5718 16.2788 16.5908 16.2626C16.6003 16.2533 16.6238 16.2488 16.6451 16.251C16.6751 16.2576 16.6824 16.4246 16.692 17.7231L16.6918 17.7233ZM9.03525 16.7901C9.05119 16.935 9.10988 17.6316 9.13331 17.9597C9.14719 18.1802 9.14719 18.1875 9.09582 18.2034C9.06807 18.2132 9.03507 18.2109 9.02569 18.1993C9.00956 18.1825 8.95744 17.6623 8.89444 16.8604L8.87756 16.6684H8.95088C9.01838 16.6684 9.02344 16.6729 9.03525 16.7901ZM7.19232 17.6104C7.20844 17.6273 7.22025 17.6858 7.22025 17.7444C7.22025 17.8052 7.24875 18.1215 7.27875 18.4496C7.36819 19.3478 7.3755 19.4693 7.33519 19.4458C7.27444 19.4106 7.22025 19.3571 7.23206 19.3433C7.23713 19.3339 7.22756 19.2165 7.20844 19.0826C7.18951 18.9188 7.17388 18.7547 7.16156 18.5903C7.15275 18.4549 7.13156 18.2059 7.11263 18.0396C7.06781 17.6293 7.07082 17.5824 7.122 17.5824C7.14799 17.5832 7.17289 17.5931 7.19232 17.6104ZM8.30119 19.188C8.30869 19.2399 8.32257 19.4318 8.33194 19.6149C8.34806 19.9665 8.34075 19.9922 8.24494 19.9196C8.217 19.8984 8.19807 19.8098 8.17013 19.5426C8.12119 19.059 8.11819 19.0781 8.20969 19.0877C8.27775 19.0943 8.28731 19.1038 8.30119 19.188Z" fill="black"/>
<path d="M7.46421 10.5118C7.22027 10.6172 7.20189 10.9483 7.43121 11.0655C7.59808 11.1497 7.76664 11.1094 7.85383 10.9643C8.01789 10.6971 7.75052 10.3879 7.46421 10.5118ZM9.05346 10.7374C8.82846 10.875 8.82846 11.2082 9.05346 11.3468C9.27621 11.4799 9.56477 11.3042 9.56477 11.0368C9.56477 10.779 9.26946 10.6056 9.05346 10.7374Z" fill="black"/>
</svg>
