<svg width="24" height="24" viewBox="0 0 24 24" fill="none" xmlns="http://www.w3.org/2000/svg">
<path d="M16.125 22.2C16.125 22.1438 16.1438 22.0875 16.125 22.0312C16.0875 21.975 16.0688 21.9375 16.0312 21.9C15.9375 21.7875 15.8438 21.6938 15.7313 21.5812L14.625 20.4562L15.4875 19.575L15.9562 19.0687C16.0312 18.9937 16.125 18.8438 16.125 18.7313V18.6562C16.125 18.4875 16.05 18.3938 15.8812 18.3563L15.9188 18.375H15.7875C15.675 18.375 15.3562 18.675 15.2812 18.7687C15 19.05 14.8125 19.3125 14.4375 19.5938V17.3625C14.4375 17.1562 14.325 17.0625 14.1188 17.0625H14.0625C13.8562 17.0625 13.6875 17.1562 13.6875 17.3625V22.2188C13.6875 22.425 13.8562 22.5 14.0625 22.5H14.1188C14.325 22.5 14.4375 22.4062 14.4375 22.2188V21.3563L15 21.9C15.1687 22.0688 15.3375 22.1812 15.4875 22.3312C15.5625 22.4062 15.7125 22.5 15.825 22.5H15.8812C16.0687 22.5 16.125 22.4062 16.1625 22.2562L16.125 22.275V22.2ZM23.4562 18.375H23.3812C22.9688 18.375 22.5938 18.4875 22.2562 18.7313C21.6937 19.1438 21.375 19.6875 21.375 20.4V22.2375C21.375 22.4438 21.45 22.5 21.6562 22.5H21.7125C21.9188 22.5 22.125 22.425 22.125 22.2375V20.5125C22.125 20.1375 22.2 19.7812 22.4813 19.5C22.7063 19.275 22.9875 19.0875 23.3063 19.0875C23.55 19.0875 23.8312 19.0312 23.8312 18.7313C23.8312 18.5063 23.6625 18.375 23.4562 18.375ZM20.5687 19.3125C20.3625 18.975 20.0812 18.7125 19.725 18.5438C19.0687 18.225 18.375 18.1875 17.7375 18.5625L17.6437 18.6188C17.3813 18.7688 17.1562 18.9563 16.9875 19.2C16.5 19.9125 16.4438 20.7188 16.875 21.4688L16.9125 21.5438C17.1 21.8625 17.3438 22.125 17.6625 22.2938C18.3375 22.6688 19.0688 22.7062 19.7438 22.3312L19.8 22.2938C19.9875 22.1812 20.025 21.9938 19.9313 21.8063C19.8938 21.7313 19.8188 21.675 19.7438 21.6375H19.7062C19.575 21.6187 19.2188 21.7688 19.0875 21.825C18.825 21.8625 18.525 21.8812 18.2625 21.7875L19.6875 20.55C19.8937 20.3625 20.1187 20.1562 20.3438 19.9875C20.5312 19.8375 20.7188 19.6313 20.5687 19.3688V19.3125ZM19.275 19.9875L17.6813 21.3563C17.625 21.3 17.5875 21.225 17.55 21.1688C17.4375 20.9813 17.3625 20.7563 17.3625 20.5312C17.3438 19.9688 17.55 19.5 18.0563 19.2188C18.4313 18.9937 18.8438 18.9563 19.2562 19.1063C19.4625 19.1812 19.7063 19.3125 19.8375 19.5C19.65 19.6688 19.4438 19.8188 19.275 19.9875ZM4.125 17.0625H4.06875C3.8625 17.0625 3.75 17.1375 3.75 17.3438V18.8625C3.375 18.525 2.925 18.3937 2.4 18.3937H2.25C1.89375 18.3937 1.55625 18.45 1.2375 18.6375C0.5625 19.0312 0.1875 19.6125 0.1875 20.4V20.55C0.1875 20.9062 0.28125 21.2063 0.46875 21.525C0.8625 22.2 1.48125 22.5375 2.25 22.5375H2.4C2.75625 22.5375 3.13125 22.4813 3.43125 22.3125C4.10625 21.9188 4.5 21.3375 4.5 20.5687V17.3812C4.5 17.1375 4.33125 17.0625 4.125 17.0625ZM3.54375 21.15C3.2625 21.6188 2.85 21.8812 2.30625 21.8812C2.08125 21.8812 1.85625 21.825 1.66875 21.7125C1.18125 21.45 0.9 21.0187 0.9 20.4562C0.9 20.25 0.9375 20.0625 1.03125 19.875C1.29375 19.3312 1.725 19.0312 2.325 19.0312C2.625 19.0312 2.8875 19.125 3.1125 19.2938C3.50625 19.575 3.73125 19.95 3.73125 20.4375C3.75 20.7 3.675 20.925 3.54375 21.15ZM7.05 18.375H6.9375C6.58125 18.375 6.225 18.4313 5.925 18.6188C5.25 19.0125 4.875 19.5938 4.875 20.3812V20.5312C4.875 20.8875 4.96875 21.1875 5.15625 21.5062C5.55 22.1812 6.16875 22.5187 6.95625 22.5187H7.10625C7.4625 22.5187 7.81875 22.4625 8.1375 22.2938C8.8125 21.9 9.20625 21.3188 9.20625 20.55V20.4C9.20625 20.0625 9.09375 19.7812 8.94375 19.5C8.53125 18.75 7.875 18.375 7.05 18.375ZM8.25 21.15C7.96875 21.6 7.575 21.8812 7.03125 21.8812C6.7875 21.8812 6.54375 21.825 6.31875 21.6937C5.85 21.4125 5.5875 21.0187 5.5875 20.475C5.5875 20.2687 5.625 20.0812 5.71875 19.8937C5.98125 19.35 6.4125 19.05 7.0125 19.05C7.29375 19.05 7.5375 19.125 7.7625 19.275C8.175 19.5563 8.41875 19.95 8.41875 20.4562C8.4375 20.6812 8.38125 20.925 8.25 21.15ZM12.8438 18.6375L12.825 18.6562C12.5063 18.45 12.15 18.375 11.775 18.375H11.625C11.2688 18.375 10.9125 18.4313 10.6125 18.6188C9.9375 19.0125 9.5625 19.5938 9.5625 20.3625V20.5125C9.5625 20.7 9.6 20.8688 9.6375 21.0563C9.9375 22.0875 10.7437 22.6688 11.8312 22.5938C12.1312 22.575 12.9375 22.4813 12.9375 22.0312V21.9562C12.9375 21.7875 12.8062 21.6375 12.6562 21.6L12.6375 21.5625H12.5062L12.4688 21.6188C12.3 21.6938 12.0187 21.8438 11.8312 21.8438C11.6062 21.8438 11.3625 21.8438 11.1562 21.7313C10.6125 21.4688 10.2938 21.0375 10.2938 20.4375C10.2938 20.2313 10.3312 20.0438 10.425 19.8563C10.6875 19.3313 11.1187 18.9937 11.7188 19.0125C11.8313 19.0125 12.0375 19.0688 12.15 19.125C12.2438 19.1625 12.4875 19.3125 12.6 19.3125H12.6375L12.6562 19.275C12.825 19.2375 12.9562 19.1063 12.9562 18.9375V18.8625C12.9562 18.7875 12.9187 18.7312 12.8812 18.675L12.8438 18.6375ZM1.0875 12.7875L1.10625 12.825C2.5875 15.3375 5.175 16.3875 8.00625 16.3875C13.4813 16.3875 18 13.9312 20.0625 8.775C21.45 8.85 22.875 8.4375 23.55 7.10625L23.7188 6.76875L23.3812 6.58125C22.575 6.1125 21.5063 6.05625 20.6063 6.31875C20.4937 5.34375 19.8563 4.5 19.1063 3.9L18.8063 3.65625L18.5625 3.95625C18.0562 4.5375 17.9062 5.5125 17.9813 6.2625C18.0375 6.80625 18.2063 7.36875 18.5438 7.81875C18.2812 7.96875 18 8.175 17.7375 8.26875C17.2125 8.45625 16.6312 8.64375 16.0687 8.64375H14.8125V6H12.375V1.3125H9.5625V3.5625H4.875V6H2.4375V8.625H0.3375L0.3 8.90625C0.20625 10.1062 0.35625 11.2688 0.8625 12.375L1.0875 12.7875ZM12.375 6.5625H14.4375V8.625H12.375V6.5625ZM9.9375 1.6875H12V3.75H9.9375V1.6875ZM9.9375 4.125H12V6.1875H9.9375V4.125ZM9.9375 6.5625H12V8.625H9.9375V6.5625ZM7.5 4.125H9.5625V6.1875H7.5V4.125ZM7.5 6.5625H9.5625V8.625H7.5V6.5625ZM7.70625 12.4125C7.70625 12.7312 7.44375 12.9938 7.125 12.9938C6.80625 12.9938 6.54375 12.7312 6.54375 12.4125C6.54375 12.0937 6.80625 11.8312 7.125 11.8312C7.44375 11.85 7.70625 12.0937 7.70625 12.4125ZM5.25 4.125H7.125V6.1875H5.25V4.125ZM5.25 6.5625H7.125V8.625H5.25V6.5625ZM2.8125 6.5625H4.875V8.625H2.8125V6.5625ZM3.2625 13.6875C3.5625 13.6875 3.8625 13.6875 4.14375 13.6688C4.875 13.6313 5.5125 13.5375 6.0375 13.3875C6.46875 14.3813 7.25625 15.3 8.6625 15.975L8.00625 15.9938C5.04375 15.975 3.45 14.9813 2.1375 13.6688C2.53125 13.6875 2.90625 13.6875 3.2625 13.6875ZM7.125 12.825C7.35 12.825 7.5375 12.6375 7.5375 12.4125C7.5375 12.3562 7.51875 12.3 7.5 12.2625C7.4625 12.3188 7.425 12.3563 7.35 12.3563C7.25625 12.3563 7.18125 12.2812 7.18125 12.1875C7.18125 12.1313 7.21875 12.075 7.25625 12.0375C7.2375 12.0187 7.18125 12 7.125 12C6.9 12 6.7125 12.1875 6.7125 12.4125C6.73125 12.6375 6.9 12.825 7.125 12.825Z" fill="#019BC6"/>
</svg>
