<svg width="24" height="24" viewBox="0 0 24 24" fill="none" xmlns="http://www.w3.org/2000/svg">
<g clip-path="url(#clip0_32_388)">
<path d="M23.3882 10.9459L13.0539 0.611993C12.4592 0.0168682 11.4939 0.0168682 10.8983 0.611993L8.7525 2.75812L11.4746 5.48024C12.1074 5.26668 12.8327 5.40993 13.3369 5.91412C13.8437 6.42149 13.9858 7.15293 13.767 7.78781L16.3905 10.4115C17.0252 10.1927 17.7578 10.3341 18.2644 10.8418C18.9731 11.55 18.9731 12.6981 18.2644 13.4066C18.096 13.5751 17.896 13.7088 17.6759 13.8C17.4558 13.8912 17.2198 13.9381 16.9816 13.9381C16.7433 13.9381 16.5074 13.8912 16.2873 13.8C16.0672 13.7088 15.8672 13.5751 15.6988 13.4066C15.4458 13.1534 15.2733 12.831 15.203 12.48C15.1328 12.129 15.168 11.765 15.3041 11.4339L12.8576 8.98743L12.8573 15.4264C13.0348 15.5138 13.1968 15.6295 13.3371 15.7691C14.0454 16.4773 14.0454 17.625 13.3371 18.3347C12.6285 19.0429 11.4801 19.0429 10.7723 18.3347C10.0639 17.6252 10.0639 16.4775 10.7723 15.7691C10.942 15.5991 11.1438 15.4646 11.3661 15.3735V8.87493C11.1437 8.78403 10.9417 8.64944 10.7723 8.47912C10.2356 7.94287 10.1064 7.15537 10.3817 6.49612L7.698 3.81243L0.612003 10.8981C0.326124 11.184 0.165527 11.5718 0.165527 11.9762C0.165527 12.3805 0.326124 12.7683 0.612003 13.0543L10.9464 23.3882C11.5416 23.9833 12.5064 23.9833 13.1025 23.3882L23.3884 13.1023C23.6742 12.8163 23.8347 12.4284 23.8347 12.024C23.8347 11.6197 23.6741 11.2319 23.3882 10.9459Z" fill="#F34F29"/>
</g>
<defs>
<clipPath id="clip0_32_388">
<rect width="24" height="24" fill="white"/>
</clipPath>
</defs>
</svg>
