<svg width="24" height="24" viewBox="0 0 24 24" fill="none" xmlns="http://www.w3.org/2000/svg">
<path d="M5.22263 21.8164L3.71457 4.90182H20.2854L18.7759 21.8138L11.9899 23.695L5.22263 21.8164Z" fill="#E44D26"/>
<path d="M12 22.257L17.4833 20.7368L18.7734 6.285H12V22.257Z" fill="#F16529"/>
<path d="M12 12.5584H9.25481L9.06544 10.4338H12V8.35931H6.79819L6.84769 8.916L7.35769 14.6327H12V12.5584ZM12 17.9458L11.9908 17.9483L9.68063 17.3243L9.53287 15.6699H7.45031L7.74094 18.9272L11.9904 20.1069L12 20.1041V17.9458Z" fill="#EBEBEB"/>
<path d="M5.25638 0.305054H6.3105V1.3468H7.275V0.305054H8.32932V3.45918H7.275V2.40299H6.31069V3.45918H5.25638V0.305054ZM9.7155 1.35112H8.78738V0.305054H11.6983V1.35112H10.7698V3.45918H9.7155V1.35112ZM12.1603 0.305054H13.2594L13.9358 1.41337L14.6113 0.305054H15.711V3.45918H14.6608V1.8958L13.9358 3.01724H13.9174L13.1918 1.8958V3.45918H12.1601V0.305054H12.1603ZM16.2358 0.305054H17.2903V2.41668H18.7729V3.45937H16.2358V0.305054Z" fill="black"/>
<path d="M11.9929 12.5584V14.6327H14.5474L14.3066 17.3231L11.9929 17.9477V20.1058L16.2458 18.9272L16.2769 18.5766L16.7644 13.1153L16.815 12.5584H16.2559H11.9929ZM11.9929 8.35931V10.4338H17.0038L17.0453 9.9675L17.14 8.916L17.1896 8.35931H11.9929Z" fill="white"/>
</svg>
