<svg width="24" height="24" viewBox="0 0 24 24" fill="none" xmlns="http://www.w3.org/2000/svg">
<path d="M10.875 11.1613L5.36136 6.49443C5.06007 6.24264 4.69135 6.08507 4.30114 6.04136C3.91093 5.99766 3.51648 6.06974 3.16695 6.24864C2.81742 6.42753 2.52826 6.70532 2.3355 7.0474C2.14274 7.38948 2.0549 7.78071 2.08292 8.17236C2.11113 8.5642 2.25415 8.93905 2.4941 9.2501C2.73406 9.56115 3.06033 9.79462 3.43217 9.92136H3.45186L3.5038 9.93749L10.4589 12.0557C10.5088 12.0741 10.5622 12.0834 10.6157 12.0842C10.7238 12.0835 10.8287 12.0477 10.9146 11.9821C11.0005 11.9165 11.0627 11.8247 11.0918 11.7207C11.1209 11.6166 11.1154 11.5058 11.076 11.4052C11.0366 11.3045 10.9655 11.2195 10.8735 11.1628L10.875 11.1613Z" fill="url(#paint0_linear_29_187)"/>
<path d="M11.9803 3.45713C11.9817 3.19466 11.9121 2.9367 11.7786 2.71067C11.6452 2.48464 11.453 2.29899 11.2225 2.17344C10.992 2.04789 10.7318 1.98715 10.4696 1.99766C10.2073 2.00817 9.95281 2.08954 9.7331 2.23313L2.99997 6.32138C2.69378 6.52078 2.44812 6.8003 2.28967 7.12955C2.13123 7.4588 2.06607 7.82519 2.10128 8.18888C2.13656 8.55248 2.27072 8.89949 2.48921 9.19226C2.7077 9.48504 3.00219 9.71239 3.34073 9.84968C3.67926 9.98696 4.04893 10.0289 4.40962 9.97104C4.77032 9.91314 5.10828 9.75759 5.38685 9.52125L11.4228 4.60238L11.4705 4.56282C11.6301 4.42607 11.7582 4.25646 11.8462 4.0656C11.9342 3.87473 11.98 3.66711 11.9803 3.45694V3.45713Z" fill="url(#paint1_linear_29_187)"/>
<path d="M21.7719 12.2666L11.5562 2.42794C11.3712 2.24242 11.1395 2.11026 10.8857 2.04541C10.6319 1.98057 10.3652 1.98543 10.1139 2.05951C9.86264 2.13369 9.63605 2.27431 9.45805 2.46654C9.28004 2.65877 9.15722 2.89547 9.10253 3.15169C9.04805 3.40808 9.0638 3.67441 9.14812 3.92259C9.23244 4.17076 9.3822 4.39157 9.5816 4.56169L9.59978 4.57763L20.4536 13.7213C20.5967 13.8414 20.7712 13.9181 20.9565 13.9425C21.1417 13.9669 21.3301 13.9379 21.4995 13.8589C21.6688 13.7796 21.812 13.6537 21.9122 13.496C22.0125 13.3383 22.0658 13.1552 22.0657 12.9683C22.0654 12.8377 22.0393 12.7085 21.9889 12.5881C21.9384 12.4677 21.8647 12.3584 21.7719 12.2666Z" fill="url(#paint2_linear_29_187)"/>
<path d="M22.0665 12.972C22.0678 12.7907 22.0188 12.6126 21.9249 12.4575C21.831 12.3024 21.6959 12.1764 21.5347 12.0935C21.3735 12.0106 21.1924 11.9741 21.0116 11.988C20.8309 12.0018 20.6575 12.0656 20.5108 12.1721L8.14969 18.2115C7.90311 18.3353 7.68481 18.5088 7.50852 18.7211C7.33223 18.9333 7.20176 19.1797 7.12531 19.4449C7.04886 19.71 7.02809 19.988 7.0643 20.2616C7.1005 20.5351 7.19291 20.7982 7.33571 21.0343C7.47851 21.2704 7.6686 21.4744 7.89405 21.6334C8.11949 21.7925 8.37541 21.9032 8.64571 21.9586C8.91601 22.014 9.19485 22.0129 9.46469 21.9553C9.73453 21.8977 9.98954 21.7849 10.2137 21.624L21.6437 13.7783C21.7743 13.6883 21.881 13.5678 21.9547 13.4274C22.0283 13.2869 22.0666 13.1306 22.0663 12.972H22.0665Z" fill="url(#paint3_linear_29_187)"/>
<path d="M8.00024 8.00024H15.9997V15.9997H8.00024V8.00024Z" fill="black"/>
<path d="M8.87043 14.4997H11.8704V15H8.87043V14.4997ZM8.745 10.0627L8.96775 9.8518C9.01087 9.91987 9.08343 9.96318 9.16406 9.96824C9.249 9.96824 9.30543 9.90824 9.30543 9.7918V9.00299H9.64968V9.79462C9.65473 9.85843 9.6464 9.9226 9.62522 9.98301C9.60404 10.0434 9.57048 10.0987 9.52668 10.1454C9.48139 10.1895 9.42769 10.2241 9.36877 10.247C9.30985 10.2699 9.24693 10.2807 9.18375 10.2787C9.09844 10.2819 9.01367 10.2639 8.93708 10.2262C8.86049 10.1885 8.79448 10.1323 8.745 10.0627ZM9.80437 9.00299H10.8084V9.29437H10.1409V9.48562H10.7402V9.75224H10.1469V9.95062H10.8135V10.2437H9.79987L9.80437 9.00299ZM11.2976 9.30543H10.9241V9.00299H12.0184V9.30543H11.6441V10.251H11.2976V9.30543ZM8.88431 10.7437H9.47306C9.53422 10.7387 9.59577 10.7459 9.65413 10.7649C9.71249 10.7839 9.76649 10.8143 9.81299 10.8544C9.86718 10.9087 9.89643 10.9811 9.89493 11.0574C9.8957 11.1181 9.8775 11.1776 9.84288 11.2274C9.80826 11.2773 9.75895 11.3152 9.70181 11.3357C9.84806 11.3629 9.95287 11.4924 9.94931 11.6411C9.94931 11.8667 9.77493 12 9.47606 12H8.88431V10.7437ZM9.55068 11.1291C9.55068 11.0602 9.49443 11.0229 9.39318 11.0229H9.22125V11.2412H9.38812C9.49218 11.2412 9.55312 11.2054 9.55312 11.1336L9.55068 11.1291ZM9.43068 11.4836H9.22125V11.7142H9.43725C9.54412 11.7142 9.60281 11.6734 9.60281 11.6001C9.59981 11.529 9.54937 11.4838 9.4335 11.4838L9.43068 11.4836ZM10.0597 10.7437H10.6134C10.7616 10.7321 10.9078 10.7797 11.0199 10.8772C11.0955 10.9549 11.1358 11.0602 11.1306 11.1679C11.133 11.2508 11.1096 11.3325 11.0636 11.4015C11.0176 11.4705 10.9512 11.5236 10.8737 11.5532L11.1722 12H10.7715L10.5195 11.6212H10.4038V12H10.0575L10.0597 10.7437ZM10.593 11.3437C10.7094 11.3437 10.7797 11.2866 10.7797 11.1943C10.7797 11.0947 10.7066 11.0443 10.5922 11.0443H10.407V11.3467L10.593 11.3437Z" fill="white"/>
<path d="M11.6119 10.7344H11.9451L12.4791 11.9934H12.1069L12.0176 11.7679H11.5335L11.4441 12H11.0831L11.6119 10.7344ZM11.9156 11.499L11.7759 11.1452L11.6346 11.499H11.9156ZM12.5333 10.7402H12.8796V11.9889H12.5333V10.7402ZM13.0078 10.7402H13.3329L13.7828 11.4068V10.74H14.1255V11.9888H13.8231L13.3519 11.3044V11.9891H13.0076L13.0078 10.7402ZM14.1825 11.8037L14.3745 11.5731C14.4869 11.6672 14.6279 11.7203 14.7744 11.7238C14.8697 11.7238 14.9188 11.691 14.9188 11.6376C14.9188 11.5824 14.8785 11.5562 14.7069 11.5159C14.4398 11.4544 14.2361 11.3826 14.2361 11.1255C14.2361 10.8934 14.4199 10.7256 14.7203 10.7256C14.9057 10.7186 15.0875 10.7775 15.2336 10.8919L15.0668 11.1291C14.9658 11.053 14.8436 11.0103 14.7173 11.0068C14.6331 11.0068 14.592 11.0398 14.592 11.0867C14.592 11.1439 14.6346 11.1694 14.8095 11.2082C15.096 11.2704 15.2732 11.3642 15.2732 11.5973C15.2732 11.8521 15.0718 11.997 14.7694 11.997C14.5567 12.0065 14.3479 11.9378 14.1825 11.8039V11.8037Z" fill="white"/>
<defs>
<linearGradient id="paint0_linear_29_187" x1="4.35198" y1="8.15464" x2="11.036" y2="11.4053" gradientUnits="userSpaceOnUse">
<stop offset="0.21" stop-color="#FE2857"/>
<stop offset="1" stop-color="#293896"/>
</linearGradient>
<linearGradient id="paint1_linear_29_187" x1="2.3173" y1="9.31466" x2="11.06" y2="2.83067" gradientUnits="userSpaceOnUse">
<stop stop-color="#FE2857"/>
<stop offset="0.01" stop-color="#FE2857"/>
<stop offset="0.86" stop-color="#FF318C"/>
</linearGradient>
<linearGradient id="paint2_linear_29_187" x1="9.88929" y1="2.87733" x2="21.3693" y2="13.3013" gradientUnits="userSpaceOnUse">
<stop offset="0.02" stop-color="#FF318C"/>
<stop offset="0.21" stop-color="#FE2857"/>
<stop offset="0.86" stop-color="#FDB60D"/>
</linearGradient>
<linearGradient id="paint3_linear_29_187" x1="20.728" y1="11.9733" x2="7.34266" y2="21.1866" gradientUnits="userSpaceOnUse">
<stop offset="0.01" stop-color="#FDB60D"/>
<stop offset="0.86" stop-color="#FCF84A"/>
</linearGradient>
</defs>
</svg>
