<svg width="24" height="24" viewBox="0 0 24 24" fill="none" xmlns="http://www.w3.org/2000/svg">
<g clip-path="url(#clip0_29_182)">
<path d="M0.264008 0.264008H23.736V23.7362H0.264008V0.264008Z" fill="#F0DB4F"/>
<path d="M21.8151 18.138C21.6431 17.0672 20.9449 16.1678 18.8766 15.3291C18.1581 14.9989 17.3571 14.7624 17.1184 14.2179C17.0336 13.9011 17.0224 13.7226 17.076 13.5308C17.2299 12.9083 17.973 12.7142 18.5619 12.8927C18.9413 13.0198 19.3003 13.3121 19.5169 13.7784C20.5298 13.1226 20.5277 13.1269 21.2349 12.6761C20.976 12.2747 20.8378 12.0894 20.6683 11.9177C20.0591 11.2373 19.2291 10.8868 17.9016 10.9136L17.2101 11.0031C16.5474 11.1705 15.9159 11.5183 15.5456 11.9846C14.4345 13.2454 14.7514 15.4519 16.1034 16.3599C17.4354 17.3597 19.3922 17.5871 19.6421 18.522C19.8853 19.6665 18.801 20.037 17.7233 19.9054C16.929 19.7402 16.4873 19.3365 16.0097 18.6024C15.1307 19.1111 15.1307 19.1111 14.2269 19.6309C14.4413 20.0994 14.6664 20.3115 15.0257 20.7174C16.7259 22.4421 20.9807 22.3573 21.7438 19.7469C21.7748 19.6573 21.9803 19.0596 21.8151 18.138ZM13.0241 11.0518H10.8287L10.8197 16.7278C10.8197 17.9349 10.8821 19.0416 10.6858 19.3808C10.3646 20.0479 9.53232 19.9652 9.15301 19.8358C8.76695 19.6461 8.57064 19.3763 8.3432 18.9949C8.28076 18.8854 8.23389 18.8006 8.21814 18.7941L6.43314 19.8872C6.72995 20.4964 7.1672 21.0251 7.72726 21.3686C8.56389 21.8708 9.68832 22.0247 10.8643 21.7547C11.6297 21.5318 12.2901 21.0699 12.6358 20.367C13.1357 19.4454 13.0284 18.33 13.0239 17.0963C13.0352 15.0834 13.0241 13.071 13.0241 11.0518Z" fill="#323330"/>
</g>
<defs>
<clipPath id="clip0_29_182">
<rect width="24" height="24" fill="white"/>
</clipPath>
</defs>
</svg>
