<svg width="20" height="20" viewBox="0 0 20 20" fill="none" xmlns="http://www.w3.org/2000/svg">
<g clip-path="url(#clip0_29_185)">
<path d="M19.3952 9.84689C19.3952 8.64501 18.4846 7.63361 17.2621 7.34501L20 0.0176697H6.43128L9.1755 7.36814C7.99144 7.68001 7.11862 8.67376 7.11862 9.85298C7.11862 10.7195 7.59644 11.488 8.32222 11.9617C8.03597 12.3316 7.70456 12.6727 7.32909 12.9961C6.62237 13.5974 5.83862 14.0594 4.99206 14.3658C4.228 13.8977 3.89706 13.0713 4.19612 12.3314C5.36128 12.008 6.20862 11.0199 6.20862 9.85845C6.20862 8.43142 4.92862 7.27533 3.36175 7.27533C1.78894 7.27533 0.509717 8.43689 0.509717 9.86439C0.509717 10.5695 0.827686 11.2164 1.33737 11.6784C1.29269 11.7597 1.24831 11.8402 1.20362 11.9269C0.777061 12.7247 0.292999 13.6261 0.107999 14.6375C-0.26122 16.6595 0.343624 18.2838 1.80175 19.2024C2.62331 19.7169 3.52784 19.9769 4.50206 19.9769C6.17612 19.9769 7.87659 19.2139 9.51909 18.4741C10.691 17.9486 11.9007 17.3992 13.0914 17.1338C13.531 17.0355 13.9892 16.9775 14.4733 16.9141C15.4535 16.787 16.4661 16.6541 17.3767 16.1744C18.44 15.6141 19.1658 14.6777 19.3763 13.603C19.5349 12.7764 19.3763 11.9445 18.9685 11.2164C19.247 10.8141 19.3959 10.3362 19.395 9.84689H19.3952ZM18.1538 9.84689C18.1538 10.65 17.4341 11.3031 16.5491 11.3031C15.6641 11.3031 14.9444 10.65 14.9444 9.84689C14.9444 9.58673 15.0208 9.33845 15.1544 9.1247C15.2052 9.04345 15.2692 8.96298 15.3325 8.89345C15.3996 8.82194 15.4744 8.75806 15.5555 8.70298L15.5622 8.69689C15.6128 8.6622 15.6702 8.62736 15.7275 8.59314C15.7275 8.59314 15.7338 8.59314 15.7338 8.58704C15.7592 8.57548 15.7849 8.55829 15.8107 8.54673C15.8167 8.54673 15.8228 8.54064 15.8294 8.54064C15.8552 8.5297 15.8869 8.51814 15.9185 8.50642C15.9486 8.4959 15.9784 8.48433 16.0077 8.47173C16.0139 8.47173 16.0205 8.46548 16.0266 8.46548C16.0522 8.46017 16.0778 8.44845 16.103 8.44298C16.1097 8.44298 16.1225 8.43689 16.1286 8.43689C16.1603 8.43142 16.186 8.42533 16.2177 8.4197H16.2244L16.3197 8.40204C16.3263 8.40204 16.3385 8.40204 16.3452 8.39657C16.3708 8.39657 16.396 8.39048 16.4216 8.39048H16.4533C16.485 8.39048 16.5174 8.38501 16.5552 8.38501H16.6382C16.6632 8.38501 16.6828 8.38501 16.7078 8.39048H16.7207C16.7719 8.39673 16.8225 8.40204 16.8738 8.41376C17.5996 8.5522 18.1538 9.14189 18.1538 9.84689ZM8.20737 1.17314H18.2233L15.9247 7.32736C15.8294 7.34501 15.7336 7.37361 15.6385 7.40236L13.2191 2.92423L10.7928 7.37345C10.6971 7.34486 10.5952 7.3272 10.4938 7.31001L8.20737 1.17314ZM12.76 9.34376C12.6392 8.80048 12.3335 8.31532 11.9007 7.95704L13.2191 5.54189L14.5496 8.00892C14.1547 8.3672 13.8683 8.82376 13.7536 9.34376H12.76ZM9.57034 8.43126C9.60206 8.42501 9.62769 8.4197 9.6594 8.41361H9.67831C9.70394 8.40814 9.72972 8.40814 9.75472 8.40189H9.78034C9.80597 8.40189 9.82487 8.39642 9.8505 8.39642H10.0989C10.1239 8.39642 10.1435 8.40189 10.1624 8.40189C10.1752 8.40189 10.1813 8.40189 10.1941 8.40814C10.2197 8.41361 10.2386 8.41361 10.2644 8.4197C10.2703 8.4197 10.2771 8.4197 10.2899 8.42517C10.3217 8.43126 10.3535 8.43673 10.3789 8.44283H10.3852C10.4108 8.44829 10.4364 8.45376 10.4614 8.46548C10.4682 8.46548 10.4742 8.47157 10.4871 8.47157C10.506 8.47704 10.5316 8.48314 10.5505 8.4947C10.5572 8.4947 10.5633 8.50017 10.57 8.50017C10.595 8.51189 10.6208 8.51798 10.6464 8.52954H10.6525C10.6842 8.54048 10.7099 8.55204 10.7355 8.56986H10.7417C10.7672 8.58142 10.7928 8.59845 10.8185 8.61001C10.8247 8.61001 10.8247 8.61626 10.8307 8.61626C10.8563 8.6272 10.8753 8.64486 10.901 8.65642L10.9077 8.66189C10.9839 8.71392 11.0541 8.77189 11.1236 8.82986L11.1303 8.83533C11.1939 8.89876 11.2574 8.96829 11.3086 9.04345C11.4741 9.2747 11.5699 9.54642 11.5699 9.84111C11.5699 10.6444 10.8502 11.2969 9.96519 11.2969C9.08019 11.2969 8.3605 10.6444 8.3605 9.84111C8.35394 9.16486 8.86972 8.59298 9.57034 8.43126ZM3.3044 8.39033C4.18956 8.39033 4.90909 9.04345 4.90909 9.84658C4.90909 10.6499 4.18956 11.3028 3.3044 11.3028C2.4194 11.3028 1.69972 10.6499 1.69972 9.84658C1.69972 9.04345 2.4194 8.39033 3.3044 8.39033ZM18.1153 13.4008C17.9755 14.1399 17.4719 14.7875 16.7335 15.1744C16.0394 15.5388 15.1861 15.6541 14.2883 15.7695C13.7983 15.833 13.2825 15.9025 12.7857 16.0124C11.4613 16.3072 10.188 16.8852 8.95269 17.4394C7.37362 18.1505 5.88315 18.8206 4.50206 18.8206C3.78237 18.8206 3.13909 18.6358 2.52815 18.2488C1.12737 17.3705 1.1969 15.7238 1.363 14.8222C1.5155 13.9781 1.94222 13.1866 2.34987 12.4297C2.37487 12.3833 2.3944 12.343 2.4194 12.2966C2.55987 12.343 2.70628 12.3778 2.85894 12.4009C2.61722 13.6259 3.3044 14.8913 4.64175 15.5156L4.88394 15.6309L5.14472 15.5442C6.25925 15.186 7.29065 14.6025 8.20128 13.8224C8.71706 13.383 9.15659 12.9094 9.52581 12.3949C9.67222 12.4181 9.81878 12.4242 9.96519 12.4242C11.2897 12.4242 12.4036 11.5977 12.7222 10.4881H13.7916C14.1102 11.6033 15.2246 12.4241 16.5491 12.4241C17.0777 12.4241 17.5678 12.2913 17.9877 12.066C18.1538 12.4992 18.2044 12.9497 18.1153 13.4008Z" fill="#99425B"/>
</g>
<defs>
<clipPath id="clip0_29_185">
<rect width="20" height="20" fill="white"/>
</clipPath>
</defs>
</svg>
