<svg width="24" height="24" viewBox="0 0 24 24" fill="none" xmlns="http://www.w3.org/2000/svg">
<path d="M12 14.1375C13.1805 14.1375 14.1375 13.1805 14.1375 12C14.1375 10.8195 13.1805 9.86249 12 9.86249C10.8195 9.86249 9.86249 10.8195 9.86249 12C9.86249 13.1805 10.8195 14.1375 12 14.1375Z" fill="#61DAFB"/>
<path d="M20.1188 8.47499C19.7063 8.32499 19.275 8.17499 18.825 8.04374C18.9375 7.59374 19.0313 7.14374 19.1063 6.71249C19.5 4.23749 19.0688 2.49374 17.8688 1.81874C17.5125 1.61249 17.1188 1.51874 16.6688 1.51874C15.3563 1.51874 13.6875 2.49374 12 4.12499C10.3125 2.49374 8.64376 1.51874 7.33126 1.51874C6.88126 1.51874 6.48751 1.61249 6.13126 1.81874C4.93126 2.51249 4.50001 4.25624 4.89376 6.71249C4.96876 7.14374 5.06251 7.59374 5.17501 8.04374C4.72501 8.17499 4.29376 8.30624 3.88126 8.47499C1.53751 9.37499 0.262512 10.6125 0.262512 12C0.262512 13.3875 1.55626 14.625 3.88126 15.525C4.29376 15.675 4.72501 15.825 5.17501 15.9562C5.06251 16.4062 4.96876 16.8562 4.89376 17.2875C4.50001 19.7625 4.93126 21.5062 6.13126 22.1812C6.48751 22.3875 6.88126 22.4812 7.33126 22.4812C8.66251 22.4812 10.3313 21.5062 12 19.875C13.6875 21.5062 15.3563 22.4812 16.6688 22.4812C17.1188 22.4812 17.5125 22.3875 17.8688 22.1812C19.0688 21.4875 19.5 19.7437 19.1063 17.2875C19.0313 16.8562 18.9375 16.4062 18.825 15.9562C19.275 15.825 19.7063 15.6937 20.1188 15.525C22.4625 14.625 23.7375 13.3875 23.7375 12C23.7375 10.6125 22.4625 9.37499 20.1188 8.47499ZM17.3438 2.75624C18.1125 3.20624 18.375 4.59374 18.0563 6.56249C18 6.95624 17.9063 7.36874 17.7938 7.79999C16.8188 7.57499 15.7875 7.42499 14.7 7.33124C14.0625 6.43124 13.4063 5.62499 12.75 4.89374C14.1375 3.52499 15.5438 2.58749 16.6875 2.58749C16.9313 2.58749 17.1563 2.64374 17.3438 2.75624ZM15.2438 13.875C14.9063 14.475 14.5125 15.075 14.1 15.675C13.4063 15.7312 12.7125 15.75 12 15.75C11.2688 15.75 10.575 15.7312 9.90001 15.675C9.48751 15.075 9.11251 14.475 8.77501 13.875C8.41876 13.2562 8.08126 12.6187 7.78126 12C8.08126 11.3812 8.41876 10.7437 8.77501 10.125C9.11251 9.52499 9.50626 8.92499 9.91876 8.32499C10.6125 8.26874 11.3063 8.24999 12.0188 8.24999C12.75 8.24999 13.4438 8.26874 14.1188 8.32499C14.5313 8.92499 14.9063 9.52499 15.2438 10.125C15.6 10.7437 15.9375 11.3812 16.2375 12C15.9188 12.6187 15.6 13.2375 15.2438 13.875ZM16.8 13.2562C17.0813 13.9125 17.3063 14.55 17.5125 15.1875C16.875 15.3375 16.2 15.45 15.4875 15.5437C15.7125 15.1875 15.9563 14.8125 16.1625 14.4187C16.3875 14.025 16.5938 13.6312 16.8 13.2562ZM12 18.3375C11.55 17.85 11.1188 17.325 10.7063 16.7812C11.1375 16.8 11.5688 16.8187 12 16.8187C12.4313 16.8187 12.8625 16.8 13.2938 16.7812C12.8813 17.325 12.45 17.85 12 18.3375ZM8.51251 15.525C7.80001 15.4312 7.12501 15.3187 6.48751 15.1687C6.69376 14.55 6.91876 13.8937 7.20001 13.2375C7.40626 13.6125 7.61251 14.0062 7.83751 14.3812C8.06251 14.7937 8.28751 15.15 8.51251 15.525ZM7.20001 10.7437C6.91876 10.0875 6.69376 9.44999 6.48751 8.81249C7.12501 8.66249 7.80001 8.54999 8.51251 8.45624C8.28751 8.81249 8.04376 9.18749 7.83751 9.58124C7.61251 9.97499 7.40626 10.3687 7.20001 10.7437ZM12 5.66249C12.45 6.14999 12.8813 6.67499 13.2938 7.21874C12.8625 7.19999 12.4313 7.18124 12 7.18124C11.5688 7.18124 11.1375 7.19999 10.7063 7.21874C11.1188 6.67499 11.55 6.14999 12 5.66249ZM16.1625 9.59999L15.4875 8.47499C16.2 8.56874 16.875 8.68124 17.5125 8.83124C17.3063 9.44999 17.0813 10.1062 16.8 10.7625C16.5938 10.3687 16.3875 9.97499 16.1625 9.59999ZM5.94376 6.56249C5.62501 4.59374 5.88751 3.20624 6.65626 2.75624C6.84376 2.64374 7.06876 2.58749 7.31251 2.58749C8.43751 2.58749 9.84376 3.50624 11.25 4.89374C10.5938 5.60624 9.93751 6.43124 9.30001 7.33124C8.21251 7.42499 7.18126 7.59374 6.20626 7.79999C6.09376 7.36874 6.01876 6.95624 5.94376 6.56249ZM1.31251 12C1.31251 11.1187 2.38126 10.1812 4.25626 9.48749C4.63126 9.33749 5.04376 9.20624 5.45626 9.09374C5.75626 10.0312 6.13126 11.025 6.58126 12.0187C6.13126 13.0125 5.73751 13.9875 5.45626 14.925C2.86876 14.175 1.31251 13.05 1.31251 12ZM6.65626 21.2437C5.88751 20.7937 5.62501 19.4062 5.94376 17.4375C6.00001 17.0437 6.09376 16.6312 6.20626 16.2C7.18126 16.425 8.21251 16.575 9.30001 16.6687C9.93751 17.5687 10.5938 18.375 11.25 19.1062C9.86251 20.475 8.45626 21.4125 7.31251 21.4125C7.06876 21.4125 6.84376 21.3562 6.65626 21.2437ZM18.0563 17.4375C18.375 19.4062 18.1125 20.7937 17.3438 21.2437C17.1563 21.3562 16.9313 21.4125 16.6875 21.4125C15.5625 21.4125 14.1563 20.4937 12.75 19.1062C13.4063 18.3937 14.0625 17.5687 14.7 16.6687C15.7875 16.575 16.8188 16.4062 17.7938 16.2C17.9063 16.6312 17.9813 17.0437 18.0563 17.4375ZM19.7438 14.5125C19.3688 14.6625 18.9563 14.7937 18.5438 14.9062C18.2438 13.9687 17.8688 12.975 17.4188 11.9812C17.8688 10.9875 18.2625 10.0125 18.5438 9.07499C21.1313 9.82499 22.6875 10.95 22.6875 12C22.6875 12.8812 21.6 13.8187 19.7438 14.5125Z" fill="#61DAFB"/>
</svg>
