<svg width="24" height="24" viewBox="0 0 24 24" fill="none" xmlns="http://www.w3.org/2000/svg">
<path fill-rule="evenodd" clip-rule="evenodd" d="M0.228577 10.5292C0.228577 10.6611 0.267389 10.7481 0.289139 10.8326C0.430889 11.3826 0.735577 11.8545 1.09708 12.285C1.61195 12.8985 2.24251 13.3924 2.88845 13.8568C3.4487 14.2596 4.02039 14.6533 4.58289 15.0531C4.67945 15.1217 4.77076 15.2006 4.87558 15.2848C4.78539 15.3336 4.71039 15.3765 4.63239 15.4161C3.89008 15.7926 3.17589 16.2146 2.51758 16.7259C2.12083 17.0342 1.7372 17.3617 1.46626 17.7898C1.03033 18.4783 0.876014 19.2118 1.20095 19.995C1.29583 20.2237 1.44058 20.4214 1.64476 20.5674C1.71095 20.6147 1.7852 20.6616 1.86264 20.6799C2.06101 20.7266 2.26314 20.7572 2.46395 20.7941L3.03264 20.7938C3.66151 20.7377 4.23395 20.5222 4.75126 20.1652C5.55976 19.6073 6.10445 18.8591 6.33864 17.8989C6.50889 17.2011 6.51583 16.5024 6.3152 15.8077C6.296 15.7434 6.27385 15.6799 6.24883 15.6176C6.22445 15.5552 6.19576 15.4944 6.16201 15.4166L7.45126 14.6752L7.47058 14.6918C7.44714 14.7684 7.4222 14.8449 7.40101 14.9224C7.24783 15.4819 7.14601 16.0511 7.18258 16.6318C7.22158 17.2506 7.39426 17.8298 7.75651 18.3467C8.04939 18.7648 8.74726 18.7804 9.05851 18.3608C9.16895 18.2117 9.27601 18.0559 9.35645 17.8896C9.56664 17.4555 9.76126 17.0138 9.96208 16.575L9.99714 16.4948C9.9827 16.7025 9.96583 16.8849 9.95814 17.0676C9.94614 17.3527 9.96283 17.6363 10.0603 17.9076C10.1438 18.1397 10.2857 18.3131 10.5516 18.3437C10.7335 18.3645 10.8784 18.2812 11.0121 18.1757C11.2192 18.012 11.3909 17.8079 11.5166 17.5759C11.8731 16.9213 12.2391 16.2707 12.5621 15.5996C12.9116 14.8738 13.2173 14.1268 13.5418 13.3886L13.5955 13.2577C13.6721 13.5591 13.7256 13.8542 13.824 14.1336C13.9384 14.4577 14.08 14.7742 14.2341 15.0819C14.307 15.2272 14.2986 15.3216 14.1975 15.4434C13.7745 15.9534 13.3588 16.4696 12.9428 16.9852C12.8507 17.0991 12.759 17.2149 12.6823 17.3392C12.6358 17.4178 12.6052 17.5047 12.5923 17.595C12.5794 17.6782 12.5992 17.7631 12.6476 17.832C12.6959 17.9009 12.769 17.9484 12.8516 17.9646C13.0183 18.0005 13.1893 18.0126 13.3594 18.0007C13.9401 17.958 14.4673 17.7542 14.9334 17.4088C15.5374 16.9614 15.7313 16.3509 15.585 15.6274C15.5455 15.4311 15.4755 15.2402 15.4074 15.051C15.3769 14.9657 15.3748 14.9059 15.4305 14.8264C15.9133 14.1369 16.3258 13.4055 16.7094 12.6572C16.7246 12.6277 16.7402 12.5983 16.7668 12.5668C16.8911 13.2137 17.0783 13.8371 17.4135 14.4028C17.2425 14.5676 17.0732 14.7171 16.92 14.8817C16.5827 15.2443 16.2902 15.6381 16.1376 16.1182C16.0719 16.3252 16.0215 16.5356 16.0508 16.7567C16.0961 17.1 16.3774 17.3231 16.7151 17.2449C17.4377 17.0777 18.0615 16.7372 18.5173 16.134C18.8241 15.7279 18.852 15.2749 18.7236 14.8003C18.6883 14.6713 18.6465 14.5444 18.6015 14.3964C18.7798 14.3411 18.9536 14.2748 19.1334 14.2337C20.067 14.0207 20.9904 14.0578 21.8901 14.3949C22.4153 14.5918 22.8396 14.9213 23.0912 15.4395C23.3985 16.0731 23.2286 16.6742 22.6314 17.0747C22.5758 17.112 22.512 17.1414 22.4659 17.1881C22.4511 17.2052 22.4401 17.2253 22.4334 17.2469C22.4268 17.2685 22.4248 17.2913 22.4275 17.3137C22.4314 17.3368 22.4923 17.3657 22.5274 17.3653C22.7237 17.3638 22.8829 17.2609 23.0357 17.1551C23.4186 16.8902 23.6979 16.5338 23.7581 16.0644L23.77 16.0292L23.7555 15.7236C23.7497 15.7059 23.7598 15.6885 23.7585 15.6752C23.6771 14.9917 23.3121 14.4617 22.7811 14.0462C22.1661 13.5653 21.4399 13.3673 20.6719 13.3359C20.049 13.3091 19.4269 13.4049 18.841 13.6178C18.6728 13.6787 18.5061 13.7509 18.3369 13.8189C18.3143 13.7779 18.2899 13.7385 18.2698 13.6978C18.0962 13.3423 17.8858 13.0026 17.8393 12.5949C17.8063 12.3054 17.7658 12.0163 17.8346 11.73C17.9008 11.4546 17.9871 11.1838 18.0683 10.9121C18.1101 10.7723 18.0806 10.6939 17.9471 10.6309C17.9006 10.6077 17.851 10.5914 17.7998 10.5825C17.4716 10.5349 17.148 10.5621 16.8302 10.6545C16.7177 10.6873 16.636 10.7503 16.611 10.8748C16.5968 10.9462 16.5677 11.0147 16.5474 11.0852C16.4644 11.3783 16.4055 11.6769 16.2713 11.9561C15.9349 12.6564 15.5509 13.3303 15.1579 13.9993C15.1153 14.0715 15.0705 14.1424 15.0169 14.2299C14.8789 13.9412 14.7317 13.6821 14.6871 13.3783C14.6366 13.0348 14.5969 12.6919 14.6824 12.351C14.7459 12.0968 14.829 11.8472 14.9055 11.5963C14.9417 11.4771 14.925 11.4144 14.817 11.3516C14.7625 11.3199 14.7008 11.2918 14.6393 11.2826C14.3028 11.2314 13.959 11.2595 13.6354 11.3647C13.5336 11.3977 13.4801 11.4636 13.449 11.5686C13.3575 11.8783 13.2795 12.1956 13.1511 12.4901C12.6309 13.6826 12.0958 14.8689 11.5613 16.0551C11.4497 16.3027 11.319 16.5418 11.1932 16.7829C11.1613 16.8441 11.1148 16.8979 11.0751 16.9552C11.0432 16.9176 11.0308 16.8917 11.031 16.8658C11.032 16.7134 11.0138 16.5564 11.0428 16.4091C11.1321 15.9633 11.2307 15.5196 11.3387 15.078C11.4268 14.7131 11.5294 14.3516 11.6271 13.9892C11.6599 13.8679 11.6604 13.7544 11.5733 13.6524C11.4268 13.4816 11.1208 13.4441 10.9393 13.5758L10.8591 13.6211L10.8746 13.4918C10.9129 13.2144 10.9206 12.9381 10.8445 12.6649C10.7496 12.3244 10.5066 12.1284 10.1533 12.1393C9.9887 12.1444 9.81583 12.1725 9.66339 12.2325C9.02233 12.4837 8.52939 12.9287 8.10976 13.464C8.07086 13.5137 8.02265 13.5554 7.96783 13.5866C7.42539 13.8874 6.88126 14.1844 6.33733 14.4825L5.73189 14.8142C5.56951 14.6593 5.42195 14.4986 5.25451 14.3623C4.7432 13.9453 4.22364 13.5386 3.70876 13.1263C3.25239 12.7609 2.81026 12.3802 2.47201 11.8963C2.22039 11.5363 2.0582 11.1424 2.04264 10.6972C2.02295 10.1301 2.18383 9.61181 2.47258 9.12937C2.84195 8.51212 3.34576 8.01675 3.89964 7.56806C4.48558 7.09369 5.11933 6.69094 5.77614 6.32325C6.69508 5.80894 7.64026 5.35369 8.6537 5.05313C9.69283 4.74488 10.7471 4.56844 11.8346 4.69144C12.2621 4.73981 12.6773 4.83769 13.0584 5.04675C13.3504 5.20669 13.5898 5.41613 13.7012 5.7435C13.8111 6.06562 13.8077 6.39206 13.7316 6.71925C13.5769 7.38187 13.2141 7.92806 12.7575 8.41613C12.0086 9.21619 11.0951 9.76088 10.0667 10.1207C9.47538 10.3278 8.86015 10.4591 8.23576 10.5113C7.72408 10.5542 7.22308 10.5088 6.73858 10.3309C6.41776 10.2129 6.13839 10.0326 5.91376 9.77081C5.87364 9.72394 5.82226 9.67313 5.74745 9.717C5.67414 9.76013 5.6612 9.82988 5.68576 9.90056C5.72683 10.0179 5.7647 10.1402 5.82864 10.2452C5.98933 10.5086 6.2237 10.6997 6.4817 10.8636C6.97726 11.1788 7.53114 11.2847 8.10545 11.3092C8.97695 11.3469 9.82726 11.2168 10.6656 10.983C11.8624 10.6493 12.903 10.0598 13.7376 9.12975C14.4325 8.35538 14.9288 7.48144 15.0351 6.42619C15.087 5.91112 15.0317 5.40656 14.7906 4.93669C14.529 4.42763 14.1131 4.04906 13.6159 3.78825C12.8918 3.40856 12.1103 3.1875 11.3036 3.1875H10.4955C9.51864 3.1875 8.5742 3.46744 7.6562 3.80138C6.96133 4.05431 6.27995 4.35281 5.61845 4.68319C4.17789 5.403 2.83633 6.27094 1.73439 7.46438C1.18539 8.05894 0.720577 8.715 0.453202 9.4875C0.372503 9.71814 0.302984 9.95253 0.244889 10.1899M5.4647 16.9423C5.40226 17.7784 5.02333 18.4562 4.40401 19.0052C4.05564 19.3138 3.65608 19.5336 3.1907 19.6108C3.02195 19.6388 2.84926 19.6455 2.68558 19.5756C2.45214 19.4758 2.39983 19.2686 2.39533 19.0479C2.38839 18.6962 2.51158 18.3782 2.68051 18.0756C2.90101 17.6811 3.22426 17.3803 3.56945 17.0994C4.1132 16.6567 4.70308 16.2821 5.3072 15.9285L5.35276 15.9097C5.44614 16.2547 5.49058 16.5954 5.4647 16.9423ZM10.1818 13.3088C10.1378 13.5758 10.0826 13.8429 10.0046 14.1017C9.73501 14.9974 9.3887 15.8653 9.01426 16.7216C8.94508 16.8801 8.84439 17.0246 8.75683 17.1748C8.74193 17.1979 8.72409 17.219 8.70376 17.2374C8.59539 17.3445 8.49264 17.3389 8.43789 17.1988C8.37414 17.0361 8.33495 16.8619 8.3012 16.6896C8.27851 16.5739 8.28395 16.4524 8.27683 16.3339C8.28414 15.4913 8.5412 14.7255 8.97733 14.0126C9.15714 13.7186 9.35289 13.4385 9.65195 13.2525C9.74498 13.1947 9.84564 13.1501 9.95101 13.1201C10.1104 13.0753 10.2083 13.149 10.1818 13.3088ZM13.4001 17.409L14.5568 16.0584C14.605 16.56 13.7524 17.5612 13.4001 17.409ZM17.0944 16.5002C17.0126 16.5471 16.9236 16.5808 16.8398 16.6241C16.7631 16.6639 16.7378 16.6237 16.7355 16.5577C16.7344 16.5121 16.7403 16.4665 16.753 16.4226C16.9091 15.8717 17.1966 15.4014 17.6243 15.0189L17.6543 15.0036C17.8577 15.5726 17.6226 16.1976 17.0944 16.5002Z" fill="#CB6699"/>
</svg>
