<svg width="24" height="24" viewBox="0 0 24 24" fill="none" xmlns="http://www.w3.org/2000/svg">
<path d="M20.1274 0.377257L18.831 0.458069L18.9321 3.15376C18.9373 3.30282 18.7654 3.38982 18.6482 3.29738L17.7801 2.61301L16.7517 3.39338C16.7252 3.41349 16.6935 3.42565 16.6604 3.42843C16.6272 3.4312 16.594 3.42449 16.5645 3.40907C16.5351 3.39365 16.5106 3.37017 16.494 3.34136C16.4774 3.31255 16.4693 3.2796 16.4708 3.24638L16.5865 0.598319L3.72622 1.40251C3.4203 1.42157 3.13396 1.55946 2.92832 1.78675C2.72268 2.01404 2.61404 2.31272 2.62559 2.61901L3.34934 21.9011C3.36039 22.1957 3.48183 22.4754 3.68955 22.6846C3.89727 22.8938 4.17607 23.0173 4.47059 23.0304L20.1478 23.7343C20.3063 23.7413 20.4646 23.7162 20.6131 23.6604C20.7616 23.6047 20.8973 23.5195 21.012 23.4099C21.1268 23.3004 21.2181 23.1687 21.2805 23.0228C21.3429 22.877 21.3751 22.72 21.375 22.5613V1.54951C21.3751 1.38907 21.3423 1.23032 21.2786 1.08307C21.2149 0.935813 21.1217 0.803186 21.0047 0.693382C20.8879 0.583516 20.7497 0.498779 20.5988 0.444407C20.4479 0.390034 20.2875 0.36718 20.1274 0.377257ZM12.3537 4.34982C15.4114 4.34982 17.0813 5.98538 17.0813 9.09713C16.668 9.41832 13.59 9.63713 13.59 9.18019C13.6549 7.43644 12.8743 7.36013 12.4407 7.36013C12.0285 7.36013 11.3346 7.48426 11.3346 8.41838C11.3346 10.7224 17.2765 10.5981 17.2765 15.2479C17.2765 17.8635 15.1512 19.3082 12.4407 19.3082C9.64315 19.3082 7.19872 18.1764 7.47472 14.2526C7.58309 13.7919 11.1394 13.9014 11.1394 14.2526C11.0963 15.8717 11.4647 16.3479 12.397 16.3479C13.1127 16.3479 13.4382 15.9536 13.4382 15.2893C13.4382 12.9229 7.58309 12.84 7.58309 8.50163C7.58309 6.01069 9.29647 4.34982 12.3538 4.34982H12.3537Z" fill="#FF4785"/>
</svg>
