<svg width="25" height="24" viewBox="0 0 25 24" fill="none" xmlns="http://www.w3.org/2000/svg">
<g clip-path="url(#clip0_29_224)">
<path d="M4.75061 8.8125H23.4387V22.6256H4.75061V8.8125Z" fill="white"/>
<path d="M0.78125 11.9831V23.7019H24.2188V0.264374H0.78125V11.9831ZM19.6681 11.0456C20.2295 11.1759 20.7397 11.4695 21.1344 11.8894C21.3517 12.1156 21.5406 12.3674 21.6969 12.6394C21.6969 12.6694 20.6844 13.3537 20.0675 13.7362C20.045 13.7512 19.955 13.6537 19.8556 13.5056C19.743 13.3113 19.583 13.1487 19.3905 13.033C19.1981 12.9172 18.9794 12.8521 18.755 12.8437C18.0444 12.795 17.5869 13.1681 17.5906 13.7812C17.5847 13.9339 17.6197 14.0854 17.6919 14.22C17.8475 14.5444 18.1381 14.7375 19.0494 15.1312C20.7275 15.8531 21.4456 16.3294 21.8919 17.0062C22.3906 17.7562 22.5012 18.9675 22.1637 19.8637C21.7887 20.8387 20.87 21.5006 19.5706 21.72C18.9772 21.788 18.3775 21.7817 17.7856 21.7012C16.8784 21.5517 16.0428 21.1161 15.4006 20.4581C15.185 20.22 14.765 19.5994 14.7913 19.5544C14.8597 19.5036 14.9318 19.4578 15.0069 19.4175L15.875 18.9375L16.5481 18.5475L16.6887 18.7556C16.9261 19.0951 17.2281 19.3844 17.5775 19.6069C18.3275 20.0006 19.3513 19.9462 19.8575 19.4906C20.0275 19.3237 20.1335 19.1024 20.1572 18.8653C20.1808 18.6282 20.1205 18.3904 19.9869 18.1931C19.7994 17.9325 19.4244 17.7131 18.3762 17.2556C17.1669 16.7344 16.6456 16.4119 16.1694 15.8981C15.8721 15.5591 15.6526 15.1591 15.5262 14.7262C15.432 14.2317 15.4181 13.7252 15.485 13.2262C15.7344 12.0581 16.61 11.2425 17.8888 11.0006C18.481 10.9273 19.0808 10.9438 19.6681 11.0494V11.0456ZM14.1669 12.0281V12.9881H11.1237V21.6562H8.96563V12.9862H5.915V12.0487C5.9055 11.7255 5.91301 11.4019 5.9375 11.0794C5.9525 11.0625 7.8125 11.0625 10.0625 11.0625H14.1556L14.1669 12.0281Z" fill="#007ACC"/>
</g>
<defs>
<clipPath id="clip0_29_224">
<rect width="24" height="24" fill="white" transform="translate(0.5)"/>
</clipPath>
</defs>
</svg>
